/* XPM */
static char *front2[] = {
/* columns rows colors chars-per-pixel */
"32 32 25 1 ",
"  c #C3A051",
". c #B9954A",
"X c #CDAB58",
"o c #B18D45",
"O c #0C0A07",
"+ c #4C342F",
"@ c #634A45",
"# c #D2A394",
"$ c #E4B5A5",
"% c #553D39",
"& c #B56A68",
"* c #291A18",
"= c #3A2B28",
"- c #6E7D61",
"; c #C0AC98",
": c #4C403D",
"> c #DBCBBC",
", c #87947C",
"< c #425059",
"1 c #57636B",
"2 c #362623",
"3 c #554C3C",
"4 c #897039",
"5 c #625029",
"6 c #66552D",
/* pixels */
"       .XX                 .    ",
"       o..XX                    ",
"         .                      ",
"                  XXXXX .       ",
"                      ...       ",
"             OO  O     oo       ",
"          OOO++OO+O             ",
"         O+++@@++@+O            ",
"        X O@@@@@@@@@O      .    ",
"      XX O@@@@@@@@@@+O     ..   ",
"XXXX  .  O@@@++@+@@@++O     . XX",
"......  O++@@#+@#@@@@O   XX.o...",
"   .  .  O+@###@##@@@O XX.. ooo ",
"         O@@#O$#$O#+@@O..       ",
"        O%@&#*$$$*#&%O..        ",
"         O%%#$$$$$#%%Oo         ",
"        ..O%%#$$$#%%O           ",
"         . O%O###O%O            ",
"          O=-=;;;=-=O           ",
"          O=-:>>;:-=O           ",
"        XO==,:>>>:,==O   o..XX  ",
"  XXXX . O:=-:;>>:-=:O     ..   ",
"   .....O::==:>;>:==::O         ",
"      ooO$#O==<<<==O#$O         ",
"         OOO<<<<<<<OOOX.        ",
"        .o O<11111<O X.         ",
"        ..oO<11<11<O..          ",
"           O<1<O<1<O            ",
"       X   O<<O O<<O            ",
"   XX..    O22O O22O            ",
"X  ...    O332O O233O    XXXXXXX",
"....  . 445555555555644   ......"
};
