/* XPM */
static char *left_2[] = {
/* columns rows colors chars-per-pixel */
"32 32 26 1 ",
"  c #C3A051",
". c #B9954A",
"X c #CDAB58",
"o c #B18D45",
"O c #0C0A07",
"+ c #4C342F",
"@ c #553D39",
"# c #634A45",
"$ c #D2A394",
"% c #E4B5A5",
"& c #291A18",
"* c #B56A68",
"= c #3A2B28",
"- c #C0AC98",
"; c #6E7D61",
": c #DBCBBC",
"> c #4C403D",
", c #87947C",
"< c #657358",
"1 c #425059",
"2 c #57636B",
"3 c #362623",
"4 c #554C3C",
"5 c #897039",
"6 c #625029",
"7 c #90783E",
/* pixels */
"       .XX                 .    ",
"       o..XX                    ",
"         .                      ",
"                  XXXXX .       ",
"                      ...       ",
"              O OO     oo       ",
"            OO+O++OO            ",
"           O@##+##@+OO          ",
"        X   O#######+@O    .    ",
"      XX   O@#######@@O    ..   ",
"XXXX  .    O#++######@O     . XX",
"......    O+#$+#+###@++O XX.o...",
"   .  .    O#$$#$####+OXX.. ooo ",
"           O$O$%O$#+#@@O.       ",
"          O+$&%%&$$*#@O.        ",
"         ..O$%%%%$$@@@O         ",
"        ... O$%%%$@@@O          ",
"         .   O$$$O@@O           ",
"            O=---=;=O           ",
"            O=::->;=O           ",
"        X  O>=:::>,==O   o..XX  ",
"  XXXX .   O>=-::>>;>O     ..   ",
"   ...... O>==:-:>=<>>O         ",
"      oo  O$==111==<$%O         ",
"           OO111111OOOX.        ",
"        .o  O222211O X.         ",
"        ..o.O221221O..          ",
"            O21O121O            ",
"       X    O11O121O            ",
"   XX..     O33O333O            ",
"X  ...     O443O444O.    XXXXXXX",
"....  .  55666666666755   ......"
};
