/* XPM */
static char *b8fdb378afae4f44db212487a78869d2znZCCxbKBMUlM6z4[] = {
/* columns rows colors chars-per-pixel */
"32 32 23 1 ",
"  c #C3A051",
". c #B9954A",
"X c #CDAB58",
"o c #B18D45",
"O c #0C0A07",
"+ c #4C342F",
"@ c #634A45",
"# c #553D39",
"$ c #3A2B28",
"% c #6E7D61",
"& c #4C403D",
"* c #8F9D84",
"= c #5F7050",
"- c #E4B5A5",
"; c #D2A394",
": c #425059",
"> c #57636B",
", c #362623",
"< c #554C3C",
"1 c #897039",
"2 c #625029",
"3 c #5D4B26",
"4 c #90783E",
/* pixels */
"       .XX                 .    ",
"       o..XX                    ",
"         .                      ",
"                  XXXXX .       ",
"                      ...       ",
"              O  OO    oo       ",
"             O+OO++OOO          ",
"            O+@++@@+++O         ",
"        X  O@@@@@@@@@O     .    ",
"      XX  O+@@@@@@@++@O    ..   ",
"XXXX  .  O++@@@@@@+@@@O     . XX",
"......    O@@@@@@@@@@@+O XX.o...",
"   .  .   O#@@+@+@@@@+OXX.. ooo ",
"         O##@@@+@@@@@#O..       ",
"          O##@@@@@@@@##O        ",
"         .O###@@@@@@##O         ",
"        ...O##@@@@###O          ",
"         .  O#######O           ",
"           O$%$%%%$%$O          ",
"           O$$%%%%%$$O          ",
"        X O$$$%%%%%$$$O  o..XX  ",
"  XXXX .  O&%$%***%$%&O    ..   ",
"   ......O&&O%%===%%O&&O        ",
"      oo O-;O$%***%$O;-O        ",
"          OOO:::::::OOO.        ",
"        .o  O:>>>>>:OX.         ",
"        ..o.O:::O:::O.          ",
"            O::O O::O           ",
"       X    O,,O O,,O           ",
"   XX..    O<,,O O,,<O          ",
"X  ...   112222222223211 XXXXXXX",
"....  .   1111111111411   ......"
};
