/* XPM */
static char *_4f3cf9f64064ca8ff9d70705baa8389pX7oA392PxPOt8e3[] = {
/* columns rows colors chars-per-pixel */
"32 32 26 1 ",
"  c #C3A051",
". c #B9954A",
"X c #CDAB58",
"o c #B18D45",
"O c #0C0A07",
"+ c #4C342F",
"@ c #634A45",
"# c #D2A394",
"$ c #E4B5A5",
"% c #553D39",
"& c #B56A68",
"* c #291A18",
"= c #3A2B28",
"- c #6E7D61",
"; c #C0AC98",
": c #4C403D",
"> c #DBCBBC",
", c #87947C",
"< c #425059",
"1 c #57636B",
"2 c #362623",
"3 c #554C3C",
"4 c #897039",
"5 c #625029",
"6 c #5D4B26",
"7 c #90783E",
/* pixels */
"       .XX                 .    ",
"       o..XX                    ",
"         .                      ",
"                  XXXXX .       ",
"                      ...       ",
"              OO  O    oo       ",
"           OOO++OO+O            ",
"          O+++@@++@+O           ",
"        X  O@@@@@@@@@O     .    ",
"      XX  O@@@@@@@@@@+O    ..   ",
"XXXX  .   O@@@++@+@@@++O    . XX",
"......   O++@@#+@#@@@@O  XX.o...",
"   .  .   O+@###@##@@@OXX.. ooo ",
"          O@@#O$#$O#+@@O.       ",
"         O%@&#*$$$*#&%O.        ",
"         .O%%#$$$$$#%%O         ",
"        ...O%%#$$$#%%O          ",
"         .  O%O###O%O           ",
"           O=-=;;;=-=O          ",
"           O=-:>>;:-=O          ",
"        X O==,:>>>:,==O  o..XX  ",
"  XXXX .  O:=-:;>>:-=:O    ..   ",
"   ......O::O=:>;>:=O::O        ",
"      oo O$#O==<<<==O#$O        ",
"          OOO<11111<OOO.        ",
"        .o  O<11<11<OX.         ",
"        ..o.O<1<O<1<O.          ",
"            O<<O O<<O           ",
"       X    O22O O22O           ",
"   XX..    O332O O233O          ",
"X  ...   445555555556544 XXXXXXX",
"....  .   4444444444744   ......"
};
