/* XPM */
static char *right_2[] = {
/* columns rows colors chars-per-pixel */
"32 32 27 1 ",
"  c #C3A051",
". c #B9954A",
"X c #CDAB58",
"o c #B18D45",
"O c #0C0A07",
"+ c #4C342F",
"@ c #553D39",
"# c #634A45",
"$ c black",
"% c #D2A394",
"& c #E4B5A5",
"* c #B56A68",
"= c #291A18",
"- c #3A2B28",
"; c #6E7D61",
": c #C0AC98",
"> c #4C403D",
", c #DBCBBC",
"< c #87947C",
"1 c #657358",
"2 c #425059",
"3 c #57636B",
"4 c #362623",
"5 c #554C3C",
"6 c #897039",
"7 c #625029",
"8 c #90783E",
/* pixels */
"       .XX                 .    ",
"       o..XX                    ",
"         .                      ",
"                  XXXXX .       ",
"                      ...       ",
"             OOO O     oo       ",
"         OOOO+++O+O             ",
"        O+++@###+#O             ",
"        XO@########O       .    ",
"      XXO@#########O       ..   ",
"XXXX  . O@####++###$        . XX",
"...... O++@###%+#+#@$    XX.o...",
"   .  . O+###%%%#%#$   XX.. ooo ",
"        O@##%%O&&O%@$  ..       ",
"       O+@#*%%=&&=%$....        ",
"        O@@@%%&&&&%$ .o         ",
"        .O@@@%&&&%$             ",
"         .O@@O%%%O              ",
"          O-;-:::-O             ",
"          O-;>,,:-O             ",
"        XO--<>,,,->O     o..XX  ",
"  XXXX . O>;>>:,,->O       ..   ",
"   .....O>>1->,:,-->O           ",
"      ooO&%1--222--%O           ",
"         OOO222222OO  X.        ",
"        .o O223332O. X.         ",
"        ..oO233233O ..          ",
"           O232O23O             ",
"       X   O232O22O             ",
"   XX..    O444O44O             ",
"X  ...     O555O455O.    XXXXXXX",
"....  . 66677777777786    ......"
};
