/* XPM */
static char *collectible[] = {
/* columns rows colors chars-per-pixel */
"32 32 153 2 ",
"   c #C3A051",
".  c #B9954A",
"X  c #CDAB58",
"o  c #B18D45",
"O  c #BF9F55",
"+  c #B49652",
"@  c #00002D",
"#  c #AF8F4C",
"$  c #AC8B46",
"%  c #D1D040",
"&  c #D2D543",
"*  c #AF904C",
"=  c #BD9B4E",
"-  c #B69349",
";  c #898B8C",
":  c #A59357",
">  c #DCD048",
",  c #C7AC4E",
"<  c #BC9A4E",
"1  c #977C48",
"2  c #484D06",
"3  c #D3D3D9",
"4  c #D6D8D3",
"5  c #7B6E2D",
"6  c #73583A",
"7  c #BE9C4F",
"8  c #B2B827",
"9  c #F1F5BF",
"0  c #FFFFF1",
"q  c #E6EAAC",
"w  c #9E9A42",
"e  c #AAAC7A",
"r  c #949A37",
"t  c #B8974E",
"y  c #A7AD39",
"u  c #FDFEE5",
"i  c #ECE3E9",
"p  c #F9FBDF",
"a  c #E6E534",
"s  c #7D6231",
"d  c #998049",
"f  c #9D8146",
"g  c #877043",
"h  c #C2C141",
"j  c #B99386",
"k  c #F0F3B4",
"l  c #E9F03C",
"z  c #D2B352",
"x  c #624B38",
"c  c #9F8245",
"v  c #CCCF9E",
"b  c #E0E178",
"n  c #D0AE4D",
"m  c #906D44",
"M  c #CBC23B",
"N  c #CBBF49",
"B  c #E0E337",
"V  c #E8ED45",
"C  c #D4B153",
"Z  c #8C7041",
"A  c #BD9B4F",
"S  c #DDE297",
"D  c #FEFEFE",
"F  c #EFF1AF",
"G  c #DDD831",
"H  c #909237",
"J  c #978F3D",
"K  c #DBDD44",
"L  c #EAF045",
"P  c #DED24C",
"I  c #CB9E57",
"U  c #906F47",
"Y  c #A38649",
"T  c #ECEE83",
"R  c #F3F8A7",
"E  c #DEDD59",
"W  c #B99853",
"Q  c #8A8A39",
"!  c #B1B43C",
"~  c #A68149",
"^  c #C6A056",
"/  c #BC9256",
"(  c #B38059",
")  c #765345",
"_  c #A48648",
"`  c #E5E042",
"'  c #E9F229",
"]  c #EAF240",
"[  c #C1A953",
"{  c #D3D542",
"}  c #CFB352",
"|  c #AC7659",
" . c #865F4A",
".. c #BA994F",
"X. c #A98B49",
"o. c #D9C051",
"O. c #E8EF44",
"+. c #E8F044",
"@. c #C4AF52",
"#. c #DCD94B",
"$. c #D6DC41",
"%. c #EBF542",
"&. c #D9C74E",
"*. c #B07B58",
"=. c #976A50",
"-. c #AB8C4B",
";. c #BF9650",
":. c #D8BE51",
">. c #E1DC49",
",. c #E7EB45",
"<. c #EBF443",
"1. c #ECF444",
"2. c #E4E348",
"3. c #CDAB53",
"4. c #AF7C59",
"5. c #A97857",
"6. c #7F673E",
"7. c #CCA054",
"8. c #D1A556",
"9. c #D3B153",
"0. c #D7C050",
"q. c #D8BF50",
"w. c #D0A755",
"e. c #BB8A58",
"r. c #AA7858",
"t. c #755443",
"y. c #B1924D",
"u. c #8F7846",
"i. c #69523C",
"p. c #A07D4A",
"a. c #B79050",
"s. c #C39853",
"d. c #C49953",
"f. c #B88C53",
"g. c #986F4E",
"h. c #513C38",
"j. c #6C5E3F",
"k. c #A5894B",
"l. c #AA8C4B",
"z. c #947C47",
"x. c #897445",
"c. c #9D8349",
"v. c #BB9A4F",
"b. c #BE9C50",
"n. c #B2934D",
"m. c #AE904C",
"M. c #988048",
"N. c #957A47",
"B. c #957B47",
"V. c #9A8149",
"C. c #A88B4B",
"Z. c #AD8F4C",
"A. c #B9984F",
/* pixels */
"              . X X                                   .         ",
"              o . . X X                                         ",
"                  .                                             ",
"                                    X X X X X   .               ",
"                                            . . .               ",
"                                              o o               ",
"                                                                ",
"                                                                ",
"                X       . .                           .         ",
"            X X         X X                           . .       ",
"X X X X     .                                           .   X X ",
". . . . . .                                       X X . o . . . ",
"      .     .                                 O + . .   o o o   ",
"                              X X X X X X     @ @ @ #           ",
"                    X X X X X . . . . . . . $ @ % & @ *         ",
"                  . . . . .             = - @ ; : > , @ <       ",
"                . . .               1 @ @ @ 2 3 4 5 6 @ 7       ",
"                  .               1 @ 8 9 0 q w e r @           ",
"                                t @ y @ u i p a s @ d           ",
"                            f @ @ g h @ @ j k l z x @           ",
"                X         c @ v b n @ m M N B V C Z @ . X X     ",
"    X X X X   .         A @ S D F G H @ J K L P I U @ . .       ",
"      . . . . . .       Y @ T R E W Q ! @ ~ ^ / ( ) @           ",
"            o o         _ @ ` ' ] [ @ @ @ { } |  .@ ..          ",
"                        X.@ o.O.+.@.#.@ $.%.&.*.=.@ -.          ",
"                . o     . @ ;.:.>.,.<.<.1.2.3.4.5.@ 1           ",
"                . . o .   @ 6.7.8.9.0.0.q.w.e.r.t.@ y.          ",
"                        ..u.@ i.p.a.s.d.f.g. .h.@ j.k.          ",
"              X           l.z.@ @ @ @ @ @ @ @ @ x.c.v.          ",
"      X X . .               b.n.m.M.N.N.B.V.C.Z.A.              ",
"X     . . .                             .         X X X X X X X ",
". . . .     .                           X           . . . . . . "
};
