/* XPM */
static char *door_close[] = {
/* columns rows colors chars-per-pixel */
"32 32 87 1 ",
"  c #4E2A14",
". c #522D16",
"X c #512E19",
"o c #563017",
"O c #55321B",
"+ c #5A361D",
"@ c #5D391D",
"# c #553524",
"$ c #583621",
"% c #573927",
"& c #5E3C22",
"* c #573B28",
"= c #593D2B",
"- c #613E23",
"; c #603E29",
": c #5F4025",
"> c #5D412C",
", c #5D4332",
"< c #624126",
"1 c #65452A",
"2 c #68472B",
"3 c #67482C",
"4 c #6A4B2E",
"5 c #73502E",
"6 c #7D592E",
"7 c #614733",
"8 c #654B35",
"9 c #6C4E32",
"0 c #654E3B",
"q c #6B4F39",
"w c #6E5133",
"e c #66513E",
"r c #6A523D",
"t c #715536",
"y c #745837",
"u c #7A5831",
"i c #735638",
"p c #765A3B",
"a c #795D3D",
"s c #7B603E",
"d c #665240",
"f c #6A5542",
"g c #6C5946",
"h c #6D5D49",
"j c #735944",
"k c #7A5E40",
"l c #715E49",
"z c #7D6241",
"x c #74614C",
"c c #78654E",
"v c #766451",
"b c #796752",
"n c #7B6A55",
"m c #7E6E59",
"M c #7F705E",
"N c #846236",
"B c #80613B",
"V c #8B6A3D",
"C c #99773D",
"Z c #9E7A3F",
"A c #A07C3D",
"S c #806645",
"D c #826847",
"F c #816749",
"G c #846A4B",
"H c #886F4F",
"J c #9F7C42",
"K c #876F50",
"L c #816F5B",
"P c #8B7252",
"I c #82715C",
"U c #907755",
"Y c #957E5D",
"T c #A27E40",
"R c #847564",
"E c #867867",
"W c #A68243",
"Q c #A98443",
"! c #AF8B46",
"~ c #B59047",
"^ c #B7934A",
"/ c #BB964B",
"( c #BE9A4D",
") c #9A8363",
"_ c #8E8270",
"` c #C29F50",
"' c #C3A051",
/* pixels */
"'''''''~TQTBppB;5BiiBTTT````````",
"''`'//VBHPwHUUPjkPPPS-tt5B~`````",
"'''!B-HYYYjFPPPkkPPPS4GDFi-5!```",
"'`JaP2PFPG5uBikw4ikBp1iSSF;i2T``",
"`QtUP2ySSS4pSkSi5BSBi4akkp9GB;T`",
"`5FDp<aGSStpkkSyqSSBpqSkzk4kFj2`",
"NkGya2SSSStpkBkytBBkpqSSka5kaGtN",
"4Gpya4kSSStpkkSpiSSSB5kkzktkapG-",
";ptty2aaaptpzkSyaSSsawpiap9appz+",
"-qqjrjkjnIwpkkkypSsSaqIbjiirfrrO",
"-lvnnLLILILipkSyaSzaiRMnmbvvbcl+",
"+7888rrrll7iakkypSzzp<xh0880877X",
"o;<<2@22219aakkypSBzk3113313111.",
"+ppyp<kzpt9pkakiaDzzzwppsswipipO",
"+iiiy4kaki2ppkkiaSszpwzzsswiiiyO",
"+iiii4aaapwpppkizDzspwzpspwiwtyO",
"Otipi4aapawipyw3wiasptzaapwwiiiO",
"Optti4kpipwtpwmmLn9aaispaawwwiwO",
"Oyittwkiiiwii>bhlb;ppiapip4wrwwO",
"Oittt9aiyiwii+x98x$iitappi3wwwwO",
"Xtttt4aww99ti:>>>>:ittiipy1ww99o",
".8888rrwxn3tit,:<2wpw4nlq98888,.",
"Oxxbcnmmmmm9tpp4wpitwMmnnvxvvxxO",
".0,eerfdhx79ttp94yyiw,hhee0ee88.",
" @@@&o&->>@wyttw9yttw:>>&&@@@+@ ",
"owwww-wyww3wyty4,ttt94wisy<9w4w.",
".4449:49w9:3999::4443<itww@3341 ",
"Xeeereteffdgerf,,hgfrrddeeeqe,eX",
"#mMMMMMMMMMMMM_vv_EEMMMMMMMMMMM%",
"Xeeeeeeddghhhgheelghgghhfeeee,eX",
"Xd0egdgfgggghhhdexhhhhhgfgdfdeeX",
" *%*>*>>==,>,,,**,>>>>>**>===*# "
};
