/* XPM */
static char *_3503a94fc82447ed8961fbc00a835d7CQs8HdTyvT7BGAcr[] = {
/* columns rows colors chars-per-pixel */
"32 32 136 2 ",
"   c #B86F50",
".  c #4E2A14",
"X  c #522D16",
"o  c #512E19",
"O  c #563017",
"+  c #55321B",
"@  c #5A361D",
"#  c #5D391E",
"$  c #553524",
"%  c #583621",
"&  c #573927",
"*  c #5E3C22",
"=  c #573B28",
"-  c #593D2B",
";  c #613E23",
":  c #603E29",
">  c #5F4025",
",  c #5D412C",
"<  c #5D4332",
"1  c #624126",
"2  c #65452A",
"3  c #68472B",
"4  c #67482C",
"5  c #6A4B2E",
"6  c #614733",
"7  c #654B35",
"8  c #6C4E32",
"9  c #654E3B",
"0  c #6B4F39",
"q  c #6E5133",
"w  c #66513E",
"e  c #6A523D",
"r  c #715436",
"t  c #745837",
"y  c #735638",
"u  c #765A3B",
"i  c #795D3D",
"p  c #7B603E",
"a  c #665240",
"s  c #6A5542",
"d  c #6C5946",
"f  c #6D5D49",
"g  c #735944",
"h  c #7A5E40",
"j  c #715E49",
"k  c #7E6342",
"l  c #7D6241",
"z  c #7E6441",
"x  c #7F6542",
"c  c #7F6443",
"v  c #7D6344",
"b  c #7F6444",
"n  c #7F6544",
"m  c #7F6445",
"M  c #7F6546",
"N  c #7F6646",
"B  c #7B6140",
"V  c #73604B",
"C  c #75614B",
"Z  c #76634B",
"A  c #76634E",
"S  c #76644E",
"D  c #74614C",
"F  c #78654E",
"G  c #766451",
"H  c #786751",
"J  c #7B6652",
"K  c #7C6753",
"L  c #786751",
"P  c #786852",
"I  c #796852",
"U  c #7B6953",
"Y  c #7B6A53",
"T  c #7C6C56",
"R  c #7B6A55",
"E  c #7E6E58",
"W  c #7E6E59",
"Q  c #7F6F59",
"!  c #7E6E5A",
"~  c #7F705E",
"^  c #806544",
"/  c #806545",
"(  c #806644",
")  c #806645",
"_  c #816645",
"`  c #816746",
"'  c #806647",
"]  c #816745",
"[  c #826847",
"{  c #816748",
"}  c #816649",
"|  c #816749",
" . c #826749",
".. c #826849",
"X. c #82684A",
"o. c #82694A",
"O. c #83694A",
"+. c #836A4B",
"@. c #846A4A",
"#. c #856B4B",
"$. c #866B4B",
"%. c #856B4D",
"&. c #846C4D",
"*. c #866C4D",
"=. c #876E4E",
"-. c #886E4E",
";. c #886F4F",
":. c #876F50",
">. c #816F5A",
",. c #806E5C",
"<. c #897151",
"1. c #8A7050",
"2. c #8A7150",
"3. c #8B7150",
"4. c #8A7152",
"5. c #8B7153",
"6. c #8B7252",
"7. c #8D7251",
"8. c #8D7252",
"9. c #8C7253",
"0. c #8C7353",
"q. c #8B7354",
"w. c #8D7455",
"e. c #8E7554",
"r. c #80705A",
"t. c #80705B",
"y. c #81715B",
"u. c #84715F",
"i. c #907755",
"p. c #947C5C",
"a. c #967F5E",
"s. c #837260",
"d. c #847664",
"f. c #867867",
"g. c #9A8363",
"h. c #8E8270",
/* pixels */
"                      y u u u 5 5 i i u y                       ",
"            r y #.;.8 #.i.e.0.u u 0.5.5.b ; y r 2 2             ",
"        r ; ;.p.p.g.u { e.5.5.h u q.5.5.v 5 &...{ y % 2         ",
"      i 5.5 5.{ q.&.q r i u i r 5 i i p u 2 y b / ..2 y 2       ",
"    r 0.0.3 r / [ c 8 u l l l y r p l l i 5 B l i i 5 ..i 1     ",
"  5 ..{ i 1 i #.b / r u l l l y r l l l u r l B B i 5 B b h ;   ",
"2 h &.t i 5 b b b / r u l B l y r l l l i r l B B i r p i ..y @ ",
"5 %.u u u 5 l b / / r u B B l u u c l l i r l B B i r p p i :.* ",
"1 i r r r 3 i i i i r u B h l u i / l c i q u u u u 8 u u u B @ ",
"% e e s s g g g K u.8 u B h l u i / l l i 8 u.H g s y e s w w + ",
"% Z F U U Q r.r.Q r.>.y i i l y u / l p y s.Q T Q U H H U S Z + ",
"@ 6 7 7 7 w w w j A 4 u i i B y u / l l u 2 V d 9 7 7 7 7 6 6 o ",
"+ 2 1 1 2 @ 2 3 2 2 5 i i i B y i / l l i 3 2 2 3 3 2 2 2 2 2 o ",
"@ u u u u 2 h B i r 8 u i i B y i / l l i r i i B i r u u y y + ",
"@ u y y u 5 i i h r 5 u i i B r h / p l i r l i i i q y y y y + ",
"+ y y y y 5 i i i u q u i i B y h / l l i r B i i i q r r r y + ",
"+ y y y y 5 i u u i r y u u 8 5 q r i B i r h i i i 8 r r r r + ",
"+ y r r y 5 i u u u q y u 8 Q Q Q Q 8 i u y i i i u 8 r r q r + ",
"+ y r r r 8 i y y y q y y : U j j H : u u r i u u u 5 q q q r + ",
"+ y r r r 8 i r r y q y y % Z 7 7 V % y y r i u u u 4 q q q q + ",
"+ r r r r 5 i r q 8 8 r y * , , , , * y r r r r u y 2 q 8 8 q o ",
"o 7 7 7 7 0 e 0 A R 4 r u r 4 ; 1 3 r u r 5 R j 0 7 7 7 7 7 7 o ",
"+ Z A L L T Q Q T Q Q 7 r y u 8 q u y r e ,.T U R L L L L A V + ",
"o 7 7 9 9 s s s j A 6 8 r y y 8 8 y y y 8 6 j d w 9 9 9 9 7 7 o ",
"X # # # * O * ; 2 2 ; q r r y 8 5 r r r q 1 , * * * @ % # # # . ",
"o q q q q * q r q q 4 q r r y 4 4 r q r 8 5 r r u u 1 8 8 8 8 o ",
"X 5 5 5 5 ; 8 8 8 8 1 5 8 8 5 1 > 5 5 5 4 1 r r r q % 4 2 2 2 X ",
"o 9 9 w w w w w w s w w w s s < 6 f s s s s s w w w 9 9 9 9 9 o ",
"$ Q ~ ~ ~ ~ ~ ~ ~ s.d.d.d.f.h.G G h.f.d.d.s.~ ~ ~ ~ ~ ! ! ! ~ $ ",
"o w w w w w w s s s d d d d f 9 9 j d d d d d d s s s 9 9 9 9 o ",
"o w w a s s s d d d d d f f D a 9 D f f f f d d d s s s s w w o ",
". & & = - - - - - - - - - - < = & < , , , , - - - - - - - & & . "
};
