/* XPM */
static char *door_open_soil1734924744[] = {
/* columns rows colors chars-per-pixel */
"32 32 90 1 ",
"  c #50270E",
". c #522C15",
"X c #522E19",
"o c #553017",
"O c #5A3216",
"+ c #54321D",
"@ c #5A351B",
"# c #5E391D",
"$ c #613B1C",
"% c #563522",
"& c #583721",
"* c #553926",
"= c #5D3C24",
"- c #573B29",
"; c #5B3E2A",
": c #623D22",
"> c #67411E",
", c #5A402E",
"< c #5C4432",
"1 c #624126",
"2 c #6B4523",
"3 c #6F4A26",
"4 c #64442A",
"5 c #69472B",
"6 c #65492C",
"7 c #6A4B2E",
"8 c #714E2E",
"9 c #735029",
"0 c #78562E",
"q c #614631",
"w c #634935",
"e c #6B4D32",
"r c #624E3B",
"t c #694E38",
"y c #724F30",
"u c #6D5033",
"i c #65513F",
"p c #6B523C",
"a c #725234",
"s c #7F5C30",
"d c #73573A",
"f c #765A3B",
"g c #795D3F",
"h c #675342",
"j c #695542",
"k c #6B5946",
"l c #6D5B49",
"z c #755C43",
"x c #7A5E41",
"c c #725E4B",
"v c #7D6243",
"b c #74614D",
"n c #766653",
"m c #776856",
"M c #7E6C57",
"N c #796958",
"B c #816138",
"V c #8A693F",
"C c #946F37",
"Z c #99743A",
"A c #806546",
"S c #886A40",
"D c #816749",
"F c #836A4B",
"G c #886F4F",
"H c #89704F",
"J c #967441",
"K c #987642",
"L c #9D7A41",
"P c #896F50",
"I c #8C7454",
"U c #84725E",
"Y c #8F7758",
"T c #917857",
"R c #937C5C",
"E c #957F61",
"W c #97805E",
"Q c #AB8641",
"! c #AE8B46",
"~ c #B18D45",
"^ c #B69247",
"/ c #B69249",
"( c #B9954A",
") c #BF9B4E",
"_ c #978163",
"` c #9A8363",
"' c #C09D4F",
"] c #C29F50",
"[ c #C3A051",
"{ c #CDAB58",
/* pixels */
"[[/Sdp:({{[[[[[[[[[[[[[[[aAgV(]]",
"[]ZFGv$~(({{[[[[[[[[[[[[[aIHAZ][",
"[QvIFp$[[([[[[[[[[[[[[[[[aATIx~]",
"'JFIId$[[[[[[[[[[[{{{{{[(9FWYFK]",
"^zRIvu#[[[[[[[[[[[[[[[^((8AIRRf/",
"(p_Yg7#[[[[[[[[[[[[[[[[^~ygG`Ed(",
"LFRYv7#[[[[[[[[[[[[[[[[[]yAP`RDL",
"e_Yvu7#[[[[[[[[[[[[[[[[[]yADRER8",
"eEYx77#[{[[[(([[[[[[[]]]]0AxIET5",
"eEIz,4#{[[[[{{[[[[[[[]]]]yxxIET:",
"5zd4,#O[[[[[[[[[[[[[[[]]]3ecADz:",
"qMMl+5#[[[[[[[[[[[[[[[]']3ftUUU;",
"4ppq47@[[[[[[[[[[[[[']]{{:Aaezl:",
":556e7O[[[[[[[[{{{{{{']'':AxAyy@",
"4Fvd6=,C[[{{{{{(/'''/'''ZzaAFPF:",
"4Dxd6X<$[((((([[]]]'''Q[:b:AFFA:",
"6vfu6o,$((([[[[[]]]][[[[3c:gDDA@",
",vgu1#-C[([[[[[[]]]][[[[Za8fDDx@",
"1vfu,1O[[[[[[[[[[[][[[[[]$daxAx+",
"1vf7>1O[[[[[[[[[[[[[[[[[]:yyxAf@",
",vd7#,O[{[[[[[[[[[[[[[[[]@etfAd+",
"Od7$,%O([[[[[[[[[[[[[[[[]@:hpa7X",
"+bbi*o@~([[[[[[[[[[[[[[[);2;ccc+",
"+bbi+.<$[[[[[[[[[[[[[[[[$kX:wbc%",
"o-,@@&,>[[[[[[[[[[[[[[{($r;51==X",
"ofu5 <,2(~[[([[((((([{([2th.ffuo",
"@gd1*,+)((~([[[([[[[(([[]+kwagdo",
"+w<,<,3[[[[[[[[[[[[[[[[[[3jl,w,X",
"%nbh<X({[[[[[[[[[[[[[[[[[)%mMkl+",
"%bkr,9^[[[[[[[[[[[[[[[[[[)acnih+",
"%lkiXQ[[[[[[[[[[[[[[([[[[{/<mhj+",
"X<,-s)([[[[[[[[[[[[[{[[[[[/B<;-X"
};
