/* XPM */
static char *_e07579edfbc4f1bf56c6a9d9a3643e4MftqRzDyeXcq8HtS[] = {
/* columns rows colors chars-per-pixel */
"32 32 120 2 ",
"   c #B86F50",
".  c #50270E",
"X  c #4F2912",
"o  c #502710",
"O  c #522C14",
"+  c #512E19",
"@  c #553017",
"#  c #593116",
"$  c #55321C",
"%  c #5A341B",
"&  c #5B381E",
"*  c #603819",
"=  c #563522",
"-  c #583721",
";  c #563A27",
":  c #5D3C24",
">  c #573B29",
",  c #5B3E2B",
"<  c #623D22",
"1  c #5B412E",
"2  c #5C4432",
"3  c #624126",
"4  c #64442A",
"5  c #69472B",
"6  c #65492C",
"7  c #6B4B2E",
"8  c #614631",
"9  c #634935",
"0  c #6B4D32",
"q  c #634E3A",
"w  c #704E33",
"e  c #6D5033",
"r  c #65513F",
"t  c #6B523C",
"y  c #715335",
"u  c #73573A",
"i  c #765A3B",
"p  c #795D3F",
"a  c #675342",
"s  c #695542",
"d  c #6B5946",
"f  c #6D5B49",
"g  c #755C43",
"h  c #7A5E41",
"j  c #725E4B",
"k  c #7D6345",
"l  c #7D6344",
"z  c #7E6244",
"x  c #7E6344",
"c  c #7F6345",
"v  c #7C6146",
"b  c #7F6444",
"n  c #7F6545",
"m  c #7F6647",
"M  c #7C6142",
"N  c #77614D",
"B  c #76634F",
"V  c #73614D",
"C  c #766653",
"Z  c #776856",
"A  c #7D6B56",
"S  c #7E6C57",
"D  c #796958",
"F  c #806444",
"G  c #806446",
"H  c #806546",
"J  c #816547",
"K  c #806647",
"L  c #816648",
"P  c #816749",
"I  c #816849",
"U  c #826849",
"Y  c #826949",
"T  c #81684B",
"R  c #83694A",
"E  c #83694B",
"W  c #846A4A",
"Q  c #846B4B",
"!  c #82684D",
"~  c #856D4D",
"^  c #866C4C",
"/  c #866D4D",
"(  c #886F4F",
")  c #89704F",
"_  c #886F50",
"`  c #896F50",
"'  c #8A7251",
"]  c #8A7052",
"[  c #8B7352",
"{  c #8C7353",
"}  c #8D7453",
"|  c #8C7354",
" . c #8C7355",
".. c #8D7454",
"X. c #8D7554",
"o. c #8D7555",
"O. c #8D7557",
"+. c #82715D",
"@. c #84725E",
"#. c #85725E",
"$. c #8F7758",
"%. c #917857",
"&. c #91795B",
"*. c #917A5A",
"=. c #927B5B",
"-. c #927B5D",
";. c #927B5E",
":. c #957E5D",
">. c #967F5D",
",. c #967F5E",
"<. c #957F60",
"1. c #957E61",
"2. c #967F62",
"3. c #97805E",
"4. c #978163",
"5. c #988161",
"6. c #988261",
"7. c #9A8361",
"8. c #9C8564",
"9. c #9C8566",
/* pixels */
"      i u y %                                     w M p u       ",
"    0 I ~ M %                                     0 } ) l y     ",
"    h X.Q u %                                     7 J %.X.p     ",
"  e I { ( u %                                     7 Q 5.$.I y   ",
"  i ;.| l e %                                     7 M X.3.*.i   ",
"  u 2.$.p 0 %                                     7 M _ 8.>.u   ",
"  ! ;.$.h 7 @                                     7 M ' 8.>.P   ",
"0 4.X.I e 0 @                                     7 l J *.5.>.7 ",
"0 2.| l 7 0 @                                     7 m p X.5.*.5 ",
"0 2.' p , 4 O                                     5 h h ' >.X.6 ",
"6 g u 4 2 - o                                     3 0 V i l g < ",
"6 A S j $ 6 O                                     < i 9 +.@.@.4 ",
"4 t t 8 4 7 O                                     < m u 0 g g : ",
"< 7 5 7 0 7 O                                     * J M M u y & ",
"4 I l u 6 : 1                                     g y M ~ _ I : ",
"4 P M y 6 + 2 o                                 % V < h Q ~ J : ",
"4 m i e 6 O 1 o                                 % j < p I I M & ",
"3 m i e 4 - ;                                     q 7 i J I p % ",
"3 l p 0 3 3 O                                     # u y l J p % ",
"3 M i 0 3 3 O                                     % y 7 M l i $ ",
": M u 0 & : O                                     O 0 t i M i @ ",
"% u 0 : 2 = o                                     o 4 a t y 7 + ",
"$ j j a ; @ +                                     ; 3 1 j j j $ ",
"$ V V q @ o 2 X                                 o d @ < 9 V V $ ",
"O : : - % = 1 X                                 X q , 6 3 : : O ",
"@ i e 6 . 2 2 X                                 X q a O i i y @ ",
"$ M u 4 = 2 +                                     + s 9 y p y @ ",
"+ 9 9 , 2 1 X                                     O s f 2 8 8 + ",
"= C j a 2 +                                         $ Z D d f $ ",
"= V d q > +                                         $ f Z r s $ ",
"= V d r $                                             2 Z a s $ ",
"+ 2 1 ; +                                             , 2 , , O "
};
