/* XPM */
static char *result[] = {
/* columns rows colors chars-per-pixel */
"32 32 2 1 ",
"  c #B86F50",
"K c  #b06a4d",
/* pixels */
"                                ",
"                                ",
"           KKKKKKKKKK           ",
"                KKKKKKKKKKK     ",
"                                ",
"                                ",
"                                ",
"                    KKKKK       ",
"                                ",
"                                ",
"     KKKKKKKKK                  ",
"   KKKKKKKK                     ",
"                                ",
"                                ",
"                                ",
"                                ",
"                  KKKKKKKKKK    ",
"            KKKKKKKKKKKK        ",
"                                ",
"                                ",
"                                ",
"       KKKKKK                   ",
"                                ",
"                                ",
"                                ",
"                      KKKKKK    ",
"                                ",
"                                ",
"        KKKK                    ",
"           KKKKKKKK             ",
"                                ",
"                                "
};
