/* XPM */
static char *soil_2[] = {
/* columns rows colors chars-per-pixel */
"32 32 16 1 ",
"  c #C3A051",
". c #B9954A",
"X c #CDAB58",
"o c #B18D45",
"O c #E43B44",
"+ c #A22633",
"@ c #F6757A",
"# c #3E2731",
"$ c #E4A672",
"% c #E8B796",
"& c #886F38",
"* c #8F773D",
"= c #63C74D",
"- c #816833",
"; c #3E8948",
": c #265C42",
/* pixels */
"       .XX                 .    ",
"       o..XX                    ",
"         .   OOO+               ",
"           OOOOO+@XXXXX .       ",
"         @OOOO++@@    ...       ",
"        +@@O+@@++++    oo       ",
"        #++++@@++++#            ",
"        ###+++++####            ",
"        X##########        .    ",
"      XX   $$$$            ..   ",
"XXXX  .    $$%%             . XX",
"......     %%%%$&        XX.o...",
"   .  .   &$%%%$&&     XX.. ooo ",
"         &&&$$$****XX  ..  ==   ",
"          *****---......  ==;;  ",
"         ..---&&&    .o  =;;;:: ",
"        ...               ::::: ",
"         .                 $$   ",
"                          %%$   ",
"                         &$$&&  ",
"        X                o--*X  ",
"  XXXX .                   ..   ",
"   ......                       ",
"      oo                        ",
"                      X.        ",
"        .o  .  ..... X.         ",
"        ..o.   .    ..          ",
"                                ",
"       X                        ",
"   XX..                         ",
"X  ...              .    XXXXXXX",
"....  .             X     ......"
};
