/* XPM */
static char *f5d974cf6d9e4323f99581697e95ef30ManeG3dWzqIZoogg[] = {
/* columns rows colors chars-per-pixel */
"32 32 97 2 ",
"   c #C3A051",
".  c #B9954A",
"X  c #CDAB58",
"o  c #B18D45",
"O  c #D4BB84",
"+  c #DBC696",
"@  c #C5A458",
"#  c #D0B577",
"$  c #EDFBF8",
"%  c #9ADDF1",
"&  c #B3AE75",
"*  c #B6A45B",
"=  c #EAF9F4",
"-  c #EBFCFE",
";  c #C5A357",
":  c #AFA560",
">  c #E6F9F6",
",  c #87E2F3",
"<  c #5DCDEB",
"1  c #87E2F2",
"2  c #C7A75F",
"3  c #D9C493",
"4  c #CFB683",
"5  c #BFAC6A",
"6  c #E4F7F4",
"7  c #87E3F4",
"8  c #0FA4DB",
"9  c #C7A65D",
"0  c #ECFAF7",
"q  c #EBFCFB",
"w  c #E0F6F1",
"e  c #88E3F4",
"r  c #86E2F2",
"t  c #C9A962",
"y  c #E9F6EE",
"u  c #E8F7F0",
"i  c #E0F2E9",
"p  c #E6F9F9",
"a  c #8DDAF0",
"s  c #84E2F3",
"d  c #86E3F4",
"f  c #86E2F1",
"g  c #DCC48A",
"h  c #EBF9F4",
"j  c #EBFEFE",
"k  c #B8F3FA",
"l  c #E3F7F3",
"z  c #5DD2ED",
"x  c #82E2F3",
"c  c #4AA5C7",
"v  c #88E2F2",
"b  c #E3EBDD",
"n  c #75E5F4",
"m  c #60E3EB",
"M  c #C4BC86",
"N  c #85E2F3",
"B  c #78C6DE",
"V  c #CAF3F7",
"C  c #A2F3FA",
"Z  c #00C8E9",
"A  c #BBA55A",
"S  c #86E1F0",
"D  c #83E1F2",
"F  c #61CDE8",
"G  c #B1AB67",
"H  c #B1A860",
"J  c #83E2F2",
"K  c #82E1F3",
"L  c #0D60AC",
"P  c #114C8D",
"I  c #00B4DE",
"U  c #00AFE3",
"Y  c #B0A865",
"T  c #B4994E",
"R  c #118EC6",
"E  c #A0A86B",
"W  c #C2A051",
"Q  c #A68947",
"!  c #987C3F",
"~  c #0F639F",
"^  c #0D60A0",
"/  c #967B3E",
"(  c #AB8C47",
")  c #C29F51",
"_  c #AB8E49",
"`  c #8B7239",
"'  c #83DFF0",
"]  c #886F38",
"[  c #A68C49",
"{  c #C29F50",
"}  c #B18F48",
"|  c #A58542",
" . c #907439",
".. c #8B723A",
"X. c #9C8040",
"o. c #AE914C",
"O. c #BC9A4E",
/* pixels */
"              . X X                                   .         ",
"              o . . X X                                         ",
"                  .                                             ",
"                                    X X X X X   .               ",
"                                            . . .               ",
"                                              o o               ",
"                                                                ",
"                                                                ",
"                X O + @ . .                           .         ",
"            X X # $ % & X X                           . .       ",
"X X X X     . * = - % % ;                               .   X X ",
". . . . . .   : > , < 1 2                         X X . o . . . ",
"      .   3 4 5 6 7 8 1 9                     X X . .   o o o   ",
"          0 q w 1 e 8 r @ t y u i X X X X     . .               ",
"          p a s d 8 8 f g h j k % . . . . . . .                 ",
"          l z 8 x 8 c v b 8 n m %         . o                   ",
"          M N 8 8 8 B V C 8 Z % A                               ",
"            S D 8 8 F 8 8 8 % G                                 ",
"            H J K L P I U % Y                                   ",
"            T % K P P R % E     W                               ",
"          Q ! % K ~ ^ % % / ( )                   o . . X X     ",
"    X X X _ ` % ' ^ P % ` ] [ {                       . .       ",
"      . . } |  .% % % ..X.o.O.                                  ",
"            o o                                                 ",
"                                            X .                 ",
"                . o     .     . . . . .   X .                   ",
"                . . o .       .         . .                     ",
"                                                                ",
"              X                                                 ",
"      X X . .                                                   ",
"X     . . .                             .         X X X X X X X ",
". . . .     .                           X           . . . . . . "
};
