/* XPM */
static char *soil_1[] = {
/* columns rows colors chars-per-pixel */
"32 32 11 1 ",
"  c #C3A051",
". c #B9954A",
"X c #CDAB58",
"o c #B18D45",
"O c white",
"+ c #0099DB",
"@ c #2CE8F5",
"# c #124E89",
"$ c #886F38",
"% c #816833",
"& c #8F773D",
/* pixels */
"       .XX                 .    ",
"       o..XX                    ",
"         .O                     ",
"         OO       XXXXX .       ",
"        OOO           ...       ",
"       OOO+@           oo       ",
"      OOOO+@O                   ",
"      @OO@+@O                   ",
"      @OO@+@O.             .    ",
"      @O@++@OX             ..   ",
"XOXX  @O@++@O               . XX",
"OOOO..@OOOO@O            XX.o...",
"OOOOO @OOO+@O     OO@  XX.. ooo ",
"OO@@@@@OO++@O  XOOOOO@@..       ",
"O@++@@@+++#@OXXOOOOO@@..        ",
"O@@++@@+++#@O.OO@@@@@@o         ",
" O@@++@@+##@OOO@@@@@@           ",
" O@@+++@@+#@OO@@@++@@           ",
"  @@@+++@@+OO@@@++@@            ",
"   @@+++++@@@@@+++@             ",
"    @@++#++@@@+++@       o..XX  ",
"  XX@@++###@++++@          ..   ",
"   .@@++###++++@                ",
"     @@++####+@                 ",
"  $$$@@+####+@$$$     X.        ",
" $$$$@+####++$$%%%.. X.         ",
"$$$$$@+####+$$$%$$$ ..          ",
" $$$$$+++++$$$$$$$              ",
"  $$$$$&$$$$$$$$$               ",
"   XX%%$$$$$$$                  ",
"X  ...              .    XXXXXXX",
"....  .             X     ......"
};
