/* XPM */
static char *soil_3[] = {
/* columns rows colors chars-per-pixel */
"32 32 8 1 ",
"  c #C3A051",
". c #B9954A",
"X c #CDAB58",
"o c #B18D45",
"O c #B86F50",
"+ c #C28569",
"@ c #733E39",
"# c #3E2731",
/* pixels */
"       .XX                 .    ",
"       o..XX                    ",
"         .                      ",
"                  XXXXX .       ",
"                      ...       ",
"                       oo       ",
"                                ",
"                                ",
"        X   ..             .    ",
"      XX    XX             ..   ",
"XXXX  .                     . XX",
"......                   XX.o...",
"   .  .                XX.. ooo ",
"               XXXXXX  ..       ",
"          XXXXX.........        ",
"         .....       .o         ",
"        ...                     ",
"         .                      ",
"                                ",
"                                ",
"        X                o..XX  ",
"  XXXX .          OOO+++O  ..   ",
"   ......        @O+OOOOO@      ",
"      oo         @#++OOOOO@     ",
"                @####OOOOO@@    ",
"        .o  .@+++O###@@@OO@@@   ",
"        ..o.@+OOOOO##@@@@@@@@@  ",
"           @#+OOOOOO#@@@@@@@@@  ",
"       X   @###OOOOO#@@@#@@@@@@ ",
"   XX..    @###@@@@@@@@@###@@@# ",
"X  ...     ####@@@#@@@@####@##XX",
"....  .      ################..."
};
