/* XPM */
static char *_e47293c152b4d64c65f881fcf6f0227gtw0trXkWC6qyeAe[] = {
/* columns rows colors chars-per-pixel */
"32 32 2 1 ",
"  c #3E2731",
". c #733E39",
/* pixels */
"                                ",
"  .....   ............   .....  ",
" ....... .............. ....... ",
"........ .............. ........",
" ....... .............. ....... ",
"........ .............. ........",
"........ .............. ........",
" ......   ............   ...... ",
"                                ",
"    ......   ...............    ",
".. ........ ................. ..",
".. ........ ................. ..",
".. ........ ................. ..",
".. ........ ................. ..",
"    ......   ...............   .",
"                                ",
".   ............ ............  .",
".. ............. ............ ..",
".. ............. ............ ..",
".. ............. ............ ..",
".. ............. ............ ..",
".. ............. ............ ..",
"    ...........   ..........    ",
"                                ",
" ......   ............   ...... ",
"........ .............. ........",
"........ .............. ........",
" ....... .............. ....... ",
"........ .............. ........",
" ....... .............. ....... ",
"  .....   ............   .....  ",
"                                "
};
