/* XPM */
static char * wall_xpm[] = {
"32 32 2 1",
" 	c #3E2731",
".	c #733E39",
"                                ",
"  .....   ............   .....  ",
" ....... .............. ....... ",
" ....... .............. ....... ",
" ....... .............. ....... ",
" ....... .............. ....... ",
" ....... .............. ....... ",
"  .....   ............   .....  ",
"                                ",
"  ........   .....   .........  ",
" .......... ....... ........... ",
" .......... ....... ........... ",
" .......... ....... ........... ",
" .......... ....... ........... ",
"  ........   .....   .........  ",
"                                ",
"  .............. .............  ",
" ............... .............. ",
" ............... .............. ",
" ............... .............. ",
" ............... .............. ",
" ............... .............. ",
"  .............   ............  ",
"                                ",
"  .....   ............   .....  ",
" ....... .............. ....... ",
" ....... .............. ....... ",
" ....... .............. ....... ",
" ....... .............. ....... ",
" ....... .............. ....... ",
"  .....   ............   .....  ",
"                                "};
