/* XPM */
static char *bagBanner_colorBg[] = {
/* columns rows colors chars-per-pixel */
"68 28 177 2 ",
"   c #010101",
".  c #151515",
"X  c #3F3C1A",
"o  c #180632",
"O  c #1D2337",
"+  c #22262D",
"@  c #2D2D2D",
"#  c #212639",
"$  c #282735",
"%  c #2E303E",
"&  c #39332E",
"*  c #402B24",
"=  c #483536",
"-  c #573838",
";  c #444005",
":  c #4F5329",
">  c #474C30",
",  c #5A433D",
"<  c #544437",
"1  c #505231",
"2  c #654E3A",
"3  c #61423A",
"4  c #6D573C",
"5  c #7F6F2A",
"6  c #727333",
"7  c #282E40",
"8  c #2C3446",
"9  c #2D334B",
"0  c #30374F",
"q  c #333B4C",
"w  c #393E50",
"e  c #353C54",
"r  c #3E2A45",
"t  c #453741",
"y  c #533C42",
"u  c #53384E",
"i  c #633E40",
"p  c #3B4352",
"a  c #3F4855",
"s  c #3B435C",
"d  c #4E4148",
"f  c #464A56",
"g  c #414556",
"h  c #5E5E5E",
"j  c #644740",
"k  c #715343",
"l  c #735940",
"z  c #624953",
"x  c #734E54",
"c  c #7E555E",
"v  c #695156",
"b  c #72745F",
"n  c #424B64",
"m  c #434B6B",
"M  c #4C5565",
"N  c #465169",
"B  c #4A556D",
"V  c #545D6A",
"C  c #475070",
"Z  c #4D5870",
"A  c #4F5979",
"S  c #4B5575",
"D  c #525D75",
"F  c #58626E",
"G  c #566175",
"H  c #5E6671",
"J  c #59647A",
"K  c #5C687E",
"L  c #566279",
"P  c #656B76",
"I  c DimGray",
"U  c #93694E",
"Y  c #9B7B46",
"T  c #9A6D51",
"R  c #9F7054",
"E  c #856F51",
"W  c #AD7A59",
"Q  c #A97A55",
"!  c #B07F58",
"~  c #8B5E63",
"^  c #AC7D70",
"/  c #7F802F",
"(  c #949737",
")  c #9BA237",
"_  c #B8B83F",
"`  c #A5AB39",
"'  c #C3BA3B",
"]  c #C9D03E",
"[  c #D5D531",
"{  c #EBF33B",
"}  c #ECF32D",
"|  c #A38048",
" . c #B48F4E",
".. c #A99647",
"X. c #BB934F",
"o. c #A3815F",
"O. c #B88857",
"+. c #BC9C55",
"@. c #A7AD40",
"#. c #B0A642",
"$. c #A9AE57",
"%. c #898175",
"&. c #A3A76F",
"*. c #C19655",
"=. c #C69C53",
"-. c #CB9F55",
";. c #C7B747",
":. c #CDA555",
">. c #D1AA54",
",. c #D1A656",
"<. c #D4BB51",
"1. c #D3B352",
"2. c #C4B04F",
"3. c #CDC24C",
"4. c #D5C54C",
"5. c #DED24C",
"6. c #DADC46",
"7. c #D9C851",
"8. c #E1DB4A",
"9. c #E3DC46",
"0. c #DDE640",
"q. c #E2E248",
"w. c #E5E846",
"e. c #EAF144",
"r. c #E9EE5C",
"t. c #DDE164",
"y. c #EFF76F",
"u. c #566281",
"i. c #5E6A8B",
"p. c #657392",
"a. c #6B7994",
"s. c #6D7B9A",
"d. c #707E9E",
"f. c #74829A",
"g. c #79869B",
"h. c #7785A4",
"j. c #7886A3",
"k. c #7D8BA3",
"l. c #7E8CA9",
"z. c gray56",
"x. c #9F9F9F",
"c. c #818FA2",
"v. c #8391AE",
"b. c #8594B0",
"n. c #8B9AB3",
"m. c #909FB7",
"M. c #94A4BC",
"N. c #98A6BE",
"B. c #99A8BE",
"V. c #A5A5A5",
"C. c #AAAAAE",
"Z. c #CBCF89",
"A. c #CED2A3",
"S. c #F5F9B5",
"D. c #9DACC2",
"F. c #A1AEC3",
"G. c #A2B1C7",
"H. c #A7B5C9",
"J. c #A9B5C9",
"K. c #ACB8CC",
"L. c #B2BDCF",
"P. c #B3BED1",
"I. c #B6C1D1",
"U. c #B8C2D3",
"Y. c #BFC8D7",
"T. c #C6CEDC",
"R. c #C8D0DE",
"E. c LightGray",
"W. c #D9D9DA",
"Q. c #E3D7D7",
"!. c #FAFDD8",
"~. c #EBE8C2",
"^. c #DDDDE0",
"/. c #F2EDEB",
"(. c #FFFFEA",
"). c #FCFEE3",
"_. c #FFFFFD",
/* pixels */
"E.h     x.E.E.E.E.E.E.E.E.E.E.E.E.E.E.E.E.E.E.E.E.E.E.E.E.E.E.E.E.E.E.E.E.E.E.E.E.E.E.E.E.E.E.E.E.E.E.E.E.E.E.E.E.E.E.E.E.E.E.x.    V E.",
"h g 9 9 f z.E.E.E.E.E.E.E.E.E.E.E.E.E.E.E.E.E.E.E.E.E.E.E.E.E.E.E.E.E.E.E.E.E.E.E.E.E.E.E.E.E.E.E.E.E.E.E.E.E.E.E.E.E.E.E.E.z.f 0 9 w I ",
"  9 m m # @ V.V.x.x.x.x.x.x.x.x.x.x.x.x.x.x.x.x.x.V.x.x.x.x.x.x.x.x.x.x.x.x.x.x.x.x.x.V.x.x.x.x.x.x.x.x.x.x.x.x.x.x.x.x.V.V.@ # m m 8   ",
"  0 C S 8                                                                                                                     7 S C 0 . ",
"  e A u.8     u.a.a.f.g.g.g.c.c.c.c.c.c.c.c.c.c.c.c.k.c.c.c.c.c.c.k.c.k.c.c.c.c.c.c.c.k.c.c.c.c.c.c.c.c.c.c.g.g.g.f.a.a.u.    8 u.A e . ",
"  s u.i.8 + G k.b.b.M.M.M.N.D.G.G.F.G.G.G.G.G.G.G.F.G.G.G.G.G.G.G.G.G.G.G.G.G.G.G.G.G.G.G.G.G.G.G.G.F.G.G.F.N.M.M.m.> = c.G + 8 i.u.s . ",
"  n i.p.8 M v.n.n.m.B.B.D.F.J.K.K.K.K.K.K.K.K.K.K.K.K.K.K.K.K.K.K.K.K.K.K.K.K.K.K.K.K.K.K.K.K.K.K.K.K.K.K.J.F.D.B.B.( 6.` o.M 8 p.i.g . ",
"  n p.s.8 M n.M.N.B.G.G.H.K.I.U.U.U.I.U.U.U.P.P.U.U.U.U.I.U.U.U.U.U.U.U.U.U.U.U.U.U.P.U.U.U.U.P.I.U.U.U.U.P.K.H.G.o / 7.w...c 8 s.p.m . ",
"  N s.f.8 F M.F.B.J.J.L.L.L.T.T.T.T.T.T.Y.T.T.T.Y.T.T.T.Y.T.T.T.T.Y.T.Y.T.T.Y.T.Y.T.Y.T.T.T.Y.T.T.T.Y.T.T.T.P.L.X C.W.E 2.Y , 9 d.a.N . ",
"  Z d.h.q F D.J.K.L.L.U.T.U.T.T.R.R.T.T.T.T.R.R.T.T.T.R.T.T.T.R.R.R.R.R.R.R.T.R.R.R.R.T.R.R.T.T.T.T.T.T.u 1 $.Z.$.b ^.A.; z F q h.d.B . ",
"  D h.l.q F G.K.L.U.U.T.R.T.T.T.T.R.R.T.T.T.T.T.T.T.T.R.T.T.T.R.T.R.R.R.T.R.T.T.R.T.T.R.T.R.T.R.T.T.T.z > [ !._.(.t.5 ) 6 G.H p l.h.D . ",
"  L k.v.p P H.K.L.U.U.T.R.T.T.T.T.R.T.T.T.T.T.R.R.T.R.T.R.T.R.T.R.T.R.R.R.T.R.R.T.R.T.T.R.T.R.R.T.T.T.> ] } ).^./.y.;.- r H.F p v.l.D . ",
"  J v.n.a P K.I.L.I.T.T.T.T.R.T.R.T.T.R.T.R.T.R.T.R.T.R.T.R.T.R.T.R.T.R.T.T.R.T.T.R.T.R.T.T.R.R.3 X = ..' 5 %.o.S.y.8.X.O I.H a n.v.J . ",
"  K b.n.g P I.I.I.I.T.T.T.R.T.R.T.R.R.T.R.T.R.T.R.T.R.T.R.T.R.T.R.T.R.T.T.R.T.T.R.T.R.T.T.R.R.- &.Z.7.=.o Y ' 2.] { 5.=., I.P a m.b.J . ",
"  K b.M.g P I.I.I.T.T.T.T.R.T.R.R.T.R.T.R.T.T.R.T.R.T.R.T.R.T.R.T.T.R.T.R.R.T.R.T.T.R.T.R.T.x ` (._.r.] 1 = ` w.w.w.1.-.4 I.P a m.b.J . ",
"  J v.n.p I L.L.L.I.T.T.R.T.R.T.T.R.T.R.T.R.R.T.R.T.R.T.R.T.R.T.R.T.T.R.T.T.R.T.R.T.T.R.T.R.@ t.).S.2.4.( ( 4 | <.1.+.O.j K.P a b.v.J . ",
"  L l.v.q P H.K.P.U.U.T.T.T.T.T.T.T.T.T.T.T.T.T.T.R.T.R.T.R.T.R.T.R.T.T.R.T.R.T.R.T.T.T.T.T.2 5.e.{ 6.Q y #.6 ..>.Q W U y H.H p v.l.D . ",
"  D h.l.q H H.K.L.P.U.T.T.T.T.T.T.T.T.T.T.T.T.T.R.T.R.T.R.T.T.T.T.T.R.T.T.R.T.T.T.R.T.T.T.T.2 4.e.e.q.O.+. .6 e.8.O.T = z G.H q v.h.D . ",
"  Z d.h.q F D.H.L.L.L.U.T.T.T.T.T.T.T.T.T.T.T.R.T.T.T.T.R.T.T.T.R.R.T.T.R.R.R.R.R.R.T.T.R.R.k =.5.e.q.4.e.e.e.e.8.O.W U $ D.F 9 h.d.S . ",
"  N a.h.8 V M.D.B.G.K.L.L.L.T.T.T.T.T.T.T.T.T.T.Y.T.T.T.T.T.T.Y.T.T.T.Y.T.T.Y.T.T.T.T.Y.T.T.~ Y ,.4.6.e.e.e.e.q.1.O.W U O M.F 8 d.a.N . ",
"  n p.d.8 M n.M.M.B.G.J.H.K.P.U.U.U.U.U.L.U.U.U.U.U.U.U.U.U.U.U.I.I.U.U.I.U.U.U.P.I.U.U.U.U.I.< X.,.,.>.<.<.<.,.*.W R & z m.M 8 d.p.n . ",
"  n i.p.8 M v.n.n.m.B.B.D.F.H.K.K.K.K.K.K.K.K.J.K.K.J.K.K.K.K.K.K.K.K.K.K.K.K.K.K.K.K.K.K.K.K.~ = Y  .=.-.-.*.Q U k $ % n.b.M 8 p.i.g . ",
"  s u.i.8 + G k.b.n.m.M.M.N.D.H.G.G.G.G.F.G.G.G.G.G.G.G.G.G.G.G.G.G.D.G.G.G.G.G.G.G.G.G.G.G.G.G.G.u t d 4 4 i = d v n.b.k.G + 8 i.u.s . ",
"  e A L q     u.a.a.d.g.g.g.c.c.c.c.c.c.c.c.c.c.c.c.c.c.c.c.c.c.c.c.c.c.c.c.c.c.k.c.c.c.c.c.k.c.c.c.c.c.c.c.g.g.g.f.a.a.K     8 u.A e . ",
"  9 C S 7                                                                                                                     % S C 0 . ",
"  9 m m + @ V.V.x.x.x.x.x.x.x.x.x.x.x.x.x.x.x.x.x.x.x.x.x.x.x.x.x.x.x.x.x.x.x.x.x.x.x.x.x.V.x.x.x.x.x.x.x.x.x.x.x.x.x.x.V.V.@ O m m 7   ",
"h f 9 9 f z.E.E.E.E.E.E.E.E.E.E.E.E.E.E.E.E.E.E.E.E.E.E.E.E.E.E.E.E.E.E.E.E.E.E.E.E.E.E.E.E.E.E.E.E.E.E.E.E.E.E.E.E.E.E.E.E.z.f 0 9 p I ",
"E.V     x.E.E.E.E.E.E.E.E.E.E.E.E.E.E.E.E.E.E.E.E.E.E.E.E.E.E.E.E.E.E.E.E.E.E.E.E.E.E.E.E.E.E.E.E.E.E.E.E.E.E.E.E.E.E.E.E.E.E.x.    V E."
};
