/* XPM */
static char *persoBanner_colorBg[] = {
/* columns rows colors chars-per-pixel */
"68 28 182 2 ",
"   c LightGray",
".  c #5F5F5F",
"X  c black",
"o  c #9F9F9F",
"O  c #5B5B5B",
"+  c #414556",
"@  c #2B314B",
"#  c #2E344D",
"$  c #464A56",
"%  c gray56",
"&  c #393E50",
"*  c DimGray",
"=  c #2B314A",
"-  c #424A6A",
";  c #434C6C",
":  c #212638",
">  c #2D2D2D",
",  c gray65",
"<  c gray64",
"1  c #2A3048",
"2  c #070707",
"3  c #30374F",
"4  c #475070",
"5  c #4B5575",
"6  c #282E40",
"7  c #010101",
"8  c #2F354D",
"9  c #151515",
"0  c #353C55",
"q  c #4F5979",
"w  c #556180",
"e  c #2E3648",
"r  c #5C687F",
"t  c #6B7992",
"y  c #6E7B93",
"u  c #748198",
"i  c #778499",
"p  c #78859A",
"a  c #79869C",
"s  c #7F8CA1",
"d  c #818FA3",
"f  c #818FA2",
"g  c #343B53",
"h  c #3A425B",
"j  c #566282",
"k  c #5E6B8B",
"l  c #2D3547",
"z  c #22262D",
"x  c #566175",
"c  c #7B8AA4",
"v  c #8595B1",
"b  c #8998B3",
"n  c #91A1BA",
"m  c #94A4BC",
"M  c #0C0A07",
"N  c #9FAEC5",
"B  c #A3B1C7",
"V  c #A2B1C7",
"C  c #98A6BE",
"Z  c #95A4BD",
"A  c #394159",
"S  c #404861",
"D  c #5E6A8A",
"F  c #667493",
"G  c #293142",
"H  c #4A5364",
"J  c #8594B0",
"K  c #8A99B2",
"L  c #8C9AB3",
"P  c #4C342F",
"I  c #ACB8CC",
"U  c #ADB8CC",
"Y  c #A9B5C9",
"T  c #A0ADC3",
"R  c #9DABC1",
"E  c #9BAAC0",
"W  c #99A8BE",
"Q  c #909EB6",
"!  c #3E475F",
"~  c #444E67",
"^  c #647292",
"/  c #6D7B9A",
"(  c #2D3446",
")  c #4F5766",
"_  c #8D9CB5",
"`  c #95A4BB",
"'  c #634A45",
"]  c #B8C2D3",
"[  c #B9C3D3",
"{  c #B5C0D1",
"}  c #ACB8CB",
"|  c #A8B4C8",
" . c #A6B2C7",
".. c #A3B1C5",
"X. c #9AA9BF",
"o. c #97A6BC",
"O. c #424C64",
"+. c #48536C",
"@. c #697897",
"#. c #72809E",
"$. c #2F3647",
"%. c #545D6A",
"&. c #96A4BC",
"*. c #9FADC2",
"=. c #A2AFC4",
"-. c #C2CBDA",
";. c #C3CCDA",
":. c #C0C9D8",
">. c #B3BED0",
",. c #B1BCCE",
"<. c #ABB7CB",
"1. c #A4B1C6",
"2. c #465169",
"3. c #4D5870",
"4. c #707E9E",
"5. c #7886A3",
"6. c #31394A",
"7. c #58626E",
"8. c #9DACC2",
"9. c #A8B5C9",
"0. c #C8D0DE",
"q. c #C6CEDC",
"w. c #BEC7D7",
"e. c #BFC8D7",
"r. c #BBC4D5",
"t. c #B2BDCF",
"y. c #AEB9CC",
"u. c #ACB7CB",
"i. c #4B566E",
"p. c #535E76",
"a. c #7785A4",
"s. c #7F8EA9",
"d. c #353D4D",
"f. c #5D6570",
"g. c #A4B2C7",
"h. c #AEBACD",
"j. c #C7CFDD",
"k. c #C3CBDA",
"l. c #B6C1D1",
"z. c #505B73",
"x. c #566279",
"c. c #7D8BA9",
"v. c #8593AE",
"b. c #394150",
"n. c #5F6772",
"m. c #A7B5C9",
"M. c #D2A394",
"N. c #B8C3D3",
"B. c #AFBACE",
"V. c #545F76",
"C. c #5A657C",
"Z. c #8290AD",
"A. c #8B9AB3",
"S. c #3D4553",
"D. c #636A75",
"F. c #AEBACE",
"G. c #B2BDD0",
"H. c #C5CDDB",
"J. c #B4BFD1",
"K. c #586379",
"L. c #5D687D",
"P. c #8694B0",
"I. c #909FB7",
"U. c #3F4855",
"Y. c #676D77",
"T. c #B4BFD2",
"R. c #B5C1D2",
"E. c #E4B5A5",
"W. c #C8D0DD",
"Q. c #BDC6D6",
"!. c #B7C2D2",
"~. c #5A657A",
"^. c #553D39",
"/. c #B56A68",
"(. c #291A18",
"). c #3A2B28",
"_. c #6E7D61",
"`. c #C0AC98",
"'. c #4C403D",
"]. c #DBCBBC",
"[. c #87947C",
"{. c #425059",
/* pixels */
"  . X X o                                                                                                                     o X X .   ",
"O + @ # $ %                                                                                                                 % $ # @ & * ",
"X = - ; : > , < o o o o o o o o o o o o o o o o o o o o o o o o o o o o o o o o o o o o o o o o o o o o o o o o o o o o < , > : ; - 1 2 ",
"X 3 4 5 6 X 7 7 7 7 7 7 7 7 7 7 7 7 7 7 7 7 7 7 7 7 7 7 7 7 7 7 7 7 7 7 7 7 7 7 7 7 7 7 7 7 7 7 7 7 7 7 7 7 7 7 7 7 7 7 7 7 X 6 5 4 8 9 ",
"X 0 q w e X X r t y u i p a s d f f f f f f f f f f f f f f f f f f f f f f f f f f f f f f f f f f f f d s a p i u y t r X X e w q g 9 ",
"X h j k l z x c v b n m M M N B M V V V V V V V V V V V V V V V V V V V V V V V V V V V V V V V V V V B B N C Z m n b v c x z l k j A 9 ",
"X S D F G H J K L M M M P P M M P M I I I I I I I I I I I I I I I I I I I I I I I I I I I I I I I I I I U Y T R E W Q L K J H G F D ! 9 ",
"X ~ ^ / ( ) _ ` M P P P ' ' P P ' P M ] ] ] ] ] ] ] ] ] ] ] ] ] ] ] ] ] ] ] ] ] ] ] ] ] ] ] ] ] ] ] ] ] [ { } |  ...X.o.` _ ) ( / ^ O.9 ",
"X +.@.#.$.%.&.*.=.M ' ' ' ' ' ' ' ' ' M -.-.-.-.-.-.-.-.-.-.-.-.-.-.-.-.-.-.-.-.-.-.-.-.-.-.-.-.-.-.-.-.;.:.{ >.,.<.1.=.*.&.%.$.#.@.2.9 ",
"X 3.4.5.6.7.8.9.M ' ' ' ' ' ' ' ' ' ' P M 0.0.0.0.0.0.0.0.0.0.0.0.0.0.0.0.0.0.0.0.0.0.0.0.0.0.0.0.0.0.0.0.q.w.e.r.t.y.u.9.8.7.6.5.4.i.9 ",
"X p.a.s.d.f.g.h.M ' ' ' P P ' P ' ' ' P P M j.j.j.j.j.j.j.j.j.j.j.j.j.j.j.j.j.j.j.j.j.j.j.j.j.j.j.j.j.j.j.j.j.0.k.[ l.>.h.g.f.d.s.a.z.9 ",
"X x.c.v.b.n.m.M P P ' ' M.P ' M.' ' ' ' M j.j.j.j.j.j.j.j.j.j.j.j.j.j.j.j.j.j.j.j.j.j.j.j.j.j.j.j.j.j.j.j.j.j.0.k.N.l.>.B.m.n.b.v.c.V.9 ",
"X C.Z.A.S.D.F.G.M P ' M.M.M.' M.M.' ' ' M j.j.j.j.j.j.j.j.j.j.j.j.j.j.j.j.j.j.j.j.j.j.j.j.j.j.j.j.j.j.j.j.j.j.j.H.e.[ J.G.F.D.S.A.Z.K.9 ",
"X L.P.I.U.Y.T.R.M ' ' M.M E.M.E.M M.P ' ' M j.j.j.j.j.j.j.j.j.j.j.j.j.j.j.j.j.j.j.j.j.j.j.j.j.j.j.j.j.j.j.j.j.j.W.j.Q.!.R.T.Y.U.I.P.~.9 ",
"X L.P.I.U.Y.T.M ^.' /.M.(.E.E.E.(.M./.^.M j.j.j.j.j.j.j.j.j.j.j.j.j.j.j.j.j.j.j.j.j.j.j.j.j.j.j.j.j.j.j.j.j.j.j.W.j.Q.!.R.T.Y.U.I.P.~.9 ",
"X C.Z.A.S.D.F.G.M ^.^.M.E.E.E.E.E.M.^.^.M j.j.j.j.j.j.j.j.j.j.j.j.j.j.j.j.j.j.j.j.j.j.j.j.j.j.j.j.j.j.j.j.j.j.j.H.e.[ J.G.F.D.S.A.Z.K.9 ",
"X x.c.v.b.n.m.B.>.M ^.^.M.E.E.E.M.^.^.M j.j.j.j.j.j.j.j.j.j.j.j.j.j.j.j.j.j.j.j.j.j.j.j.j.j.j.j.j.j.j.j.j.j.j.0.k.N.l.>.B.m.n.b.v.c.V.9 ",
"X p.a.s.d.f.g.h.>.l.M ^.M M.M.M.M ^.M j.j.j.j.j.j.j.j.j.j.j.j.j.j.j.j.j.j.j.j.j.j.j.j.j.j.j.j.j.j.j.j.j.j.j.j.0.k.[ l.>.h.g.f.d.s.a.z.9 ",
"X 3.4.5.6.7.8.9.u.M )._.).`.`.`.)._.).M 0.0.0.0.0.0.0.0.0.0.0.0.0.0.0.0.0.0.0.0.0.0.0.0.0.0.0.0.0.0.0.0.0.q.w.e.r.t.y.u.9.8.7.6.5.4.i.9 ",
"X +.@.#.$.%.&.*.=.M )._.'.].].`.'._.).M -.-.-.-.-.-.-.-.-.-.-.-.-.-.-.-.-.-.-.-.-.-.-.-.-.-.-.-.-.-.-.-.;.:.{ >.,.<.1.=.*.&.%.$.#.@.2.9 ",
"X ~ ^ / ( ) _ ` M ).).[.'.].].].'.[.).).M ] ] ] ] ] ] ] ] ] ] ] ] ] ] ] ] ] ] ] ] ] ] ] ] ] ] ] ] ] ] ] [ { } |  ...X.o.` _ ) ( / ^ O.9 ",
"X S D F G H J K M '.)._.'.`.].].'._.).'.M I I I I I I I I I I I I I I I I I I I I I I I I I I I I I I I U Y T R E W Q L K J H G F D ! 9 ",
"X h j k l z x M '.'.M ).'.].`.].'.).M '.'.M V V V V V V V V V V V V V V V V V V V V V V V V V V V V V B B N C Z m n b v c x z l k j A 9 ",
"X 0 q w e X X M E.M.M ).).{.{.{.).).M M.E.M f f f f f f f f f f f f f f f f f f f f f f f f f f f f f f d s a p i u y t r X X e w q g 9 ",
"X 3 4 5 6 X 7 7 7 7 7 7 7 7 7 7 7 7 7 7 7 7 7 7 7 7 7 7 7 7 7 7 7 7 7 7 7 7 7 7 7 7 7 7 7 7 7 7 7 7 7 7 7 7 7 7 7 7 7 7 7 7 X 6 5 4 8 9 ",
"X = - ; : > , < o o o o o o o o o o o o o o o o o o o o o o o o o o o o o o o o o o o o o o o o o o o o o o o o o o o o < , > : ; - 1 2 ",
"O + @ # $ %                                                                                                                 % $ # @ & * ",
"  . X X o                                                                                                                     o X X .   "
};
