/* XPM */
static char *bagBanner_BgSoil[] = {
/* columns rows colors chars-per-pixel */
"68 28 178 2 ",
"   c #010101",
".  c #120F07",
"X  c #131008",
"o  c #2A2211",
"O  c #3F3C1A",
"+  c #180632",
"@  c #1D2337",
"#  c #22262D",
"$  c #212639",
"%  c #282735",
"&  c #2E303E",
"*  c #3B3A3C",
"=  c #342928",
"-  c #402B24",
";  c #433D37",
":  c #483536",
">  c #573838",
",  c #444005",
"<  c #574824",
"1  c #584824",
"2  c #544523",
"3  c #474C30",
"4  c #5A433D",
"5  c #544437",
"6  c #505231",
"7  c #4F5329",
"8  c #614F28",
"9  c #654E3A",
"0  c #61423A",
"q  c #6D573C",
"w  c #7F6F2A",
"e  c #727333",
"r  c #282E40",
"t  c #2C3446",
"y  c #2D334B",
"u  c #30374F",
"i  c #333B4C",
"p  c #353C54",
"a  c #3E2A45",
"s  c #453741",
"d  c #533A49",
"f  c #633E40",
"g  c #3B4352",
"h  c #3F4855",
"j  c #3B435C",
"k  c #4E4148",
"l  c #715343",
"z  c #735940",
"x  c #624953",
"c  c #7E555E",
"v  c #6B4D4E",
"b  c #72745F",
"n  c #424B64",
"m  c #434A6A",
"M  c #4C5565",
"N  c #4A556D",
"B  c #465169",
"V  c #545D6A",
"C  c #475070",
"Z  c #4D5870",
"A  c #4F5979",
"S  c #4B5575",
"D  c #525D75",
"F  c #58626E",
"G  c #566175",
"H  c #5E6671",
"J  c #59647A",
"K  c #5C687E",
"L  c #566279",
"P  c #656B76",
"I  c #846B35",
"U  c #8C7038",
"Y  c #93793D",
"T  c #997E3F",
"R  c #93694E",
"E  c #9B7B46",
"W  c #9A6D51",
"Q  c #9F7054",
"!  c #856F51",
"~  c #AD7A59",
"^  c #A97A55",
"/  c #B07F58",
"(  c #8B5E63",
")  c #AC7D70",
"_  c #7F802F",
"`  c #949737",
"'  c #9BA237",
"]  c #B8B83F",
"[  c #A5AB39",
"{  c #C3BA3B",
"}  c #C9D03E",
"|  c #D5D531",
" . c #EBF33B",
".. c #ECF32D",
"X. c #9B8142",
"o. c #B28E48",
"O. c #A99647",
"+. c #B9954B",
"@. c #A3815F",
"#. c #B88857",
"$. c #B08E4F",
"%. c #A7AD40",
"&. c #B0A642",
"*. c #A9AE57",
"=. c #898175",
"-. c #A3A76F",
";. c #C19655",
":. c #C69C53",
">. c #CB9F55",
",. c #C7B747",
"<. c #C3A051",
"1. c #CDAB58",
"2. c #CDA555",
"3. c #D1AA54",
"4. c #D1A656",
"5. c #D4BB51",
"6. c #D3B352",
"7. c #C4B04F",
"8. c #CDC24C",
"9. c #D5C54C",
"0. c #DED24C",
"q. c #DADC46",
"w. c #D9C851",
"e. c #E1DB4A",
"r. c #E3DC46",
"t. c #DDE640",
"y. c #E2E248",
"u. c #E5E846",
"i. c #EAF144",
"p. c #E9EE5C",
"a. c #DDE164",
"s. c #EFF76F",
"d. c #566281",
"f. c #5E6A8B",
"g. c #657392",
"h. c #6B7994",
"j. c #6D7B9A",
"k. c #707E9E",
"l. c #74829A",
"z. c #79869B",
"x. c #7785A4",
"c. c #7886A3",
"v. c #7D8BA3",
"b. c #7E8CA9",
"n. c #818FA2",
"m. c #8391AE",
"M. c #8594B0",
"N. c #8B9AB3",
"B. c #909FB7",
"V. c #94A4BC",
"C. c #98A6BE",
"Z. c #99A8BE",
"A. c #AAAAAE",
"S. c #CBCF89",
"D. c #CED2A3",
"F. c #F5F9B5",
"G. c #9DACC2",
"H. c #A1AEC3",
"J. c #A2B1C7",
"K. c #A7B5C9",
"L. c #A9B5C9",
"P. c #ACB8CC",
"I. c #B2BDCF",
"U. c #B3BED1",
"Y. c #B6C1D1",
"T. c #B8C2D3",
"R. c #BFC8D7",
"E. c #C6CEDC",
"W. c #C8D0DE",
"Q. c #D9D9DA",
"!. c #E3D7D7",
"~. c #FAFDD8",
"^. c #EBE8C2",
"/. c #DDDDE0",
"(. c #FFFFEA",
"). c #FCFEE3",
"_. c #FFFFFD",
"`. c #F2EDEB",
/* pixels */
"<.1     E +.<.o.+.+.1.1.<.<.<.<.<.<.<.<.<.<.<.<.<.<.<.<.:.<.<.<.<.<.<.<.<.<.<.o.+.+.1.1.<.<.<.<.<.<.<.<.<.<.<.<.<.<.<.<.<.<.<.Y     1 <.",
"2 * y y 3 I <.<.+.+.<.:.<.<.<.<.<.:.<.<.<.<.<.<.<.<.<.<.2.&.<.<.<.<.<.:.<.<.<.<.<.+.<.<.<.<.<.<.<.<.<.<.<.<.<.<.<.<.<.<.<.<.I ; y y * 1 ",
"  y m m @ o E Y ` E Y Y Y Y Y Y Y Y X.X.X.X.X.Y U Y Y Y E Y Y Y E Y Y Y Y Y Y Y Y Y Y Y Y Y Y Y Y Y X.X.X.X.E Y U Y Y Y Y T o $ m m y   ",
"  u C S &                                                                                                                     & S C y X ",
"  p A d.t     K h.h.l.z.z.z.n.n.n.n.n.n.n.n.n.n.n.n.v.n.n.n.n.n.n.n.n.n.n.n.n.n.n.n.n.n.n.n.n.n.n.n.n.n.n.n.z.z.l.l.g.l.d.    t d.A p X ",
"  j d.f.t # G v.m.N.B.V.V.V.G.J.J.J.J.J.J.J.J.J.J.J.J.J.J.J.J.G.J.J.J.J.J.J.J.J.J.J.J.J.J.J.J.J.J.J.J.J.J.G.Z.V.B.B.3 * v.J # t f.d.j X ",
"  n f.g.t M M.N.N.B.Z.Z.G.H.P.P.P.P.P.P.P.P.P.P.P.P.P.P.P.P.P.P.P.P.P.P.P.P.P.P.L.P.P.P.P.P.L.L.P.P.P.P.P.L.H.G.Z.Z.` q.[ @.M t g.f.j X ",
"  n g.j.t M N.V.Z.Z.J.J.K.P.Y.T.T.T.T.Y.T.Y.Y.U.T.T.T.T.T.T.T.T.T.T.Y.T.T.T.Y.Y.T.T.T.T.T.T.T.I.T.T.T.T.T.Y.L.L.K.+ U w.i.O.c t j.g.m X ",
"  B j.l.t V G.G.H.J.L.I.I.I.E.E.E.E.R.E.E.R.E.E.R.E.R.E.R.E.R.E.E.E.R.R.E.E.R.E.R.E.R.E.E.E.E.E.R.E.E.E.E.R.U.U.O A.Q.=.{ E 4 t l.h.B X ",
"  Z k.c.i G G.K.L.I.I.T.E.T.E.E.W.W.E.E.E.E.W.W.W.W.W.W.W.W.W.W.E.W.W.W.W.W.E.E.W.W.E.E.W.W.E.E.E.E.E.E.d 7 *.S.*.b /.D., d F i c.k.N X ",
"  D x.b.i F J.P.I.T.T.E.W.E.E.E.W.E.W.E.E.W.E.W.E.W.E.W.E.W.W.E.W.E.W.W.E.W.E.W.E.W.E.W.E.W.E.W.E.E.E.x 3 | ~._.).a.w ' e J.H i b.x.D X ",
"  L b.m.g H K.P.I.T.T.E.W.E.E.E.E.W.E.W.W.E.W.E.E.E.W.E.W.E.E.W.E.W.E.W.W.E.W.E.W.E.W.E.W.E.W.E.E.E.E.3 } ..~.!.`.s.,.> a L.H g m.b.D . ",
"  J m.N.h H I.Y.I.Y.E.E.E.W.E.W.W.E.W.E.W.E.E.W.W.E.W.E.W.E.W.E.E.W.E.E.W.E.E.W.E.W.W.E.W.E.E.W.0 2 : O.{ e =.) F.s.r.+.$ P.P g N.m.G . ",
"  K M.N.h P Y.Y.T.T.E.E.W.E.W.E.W.E.E.W.E.W.E.E.E.W.E.W.E.W.E.W.W.E.W.E.E.W.W.E.W.E.E.W.E.W.E.d -.S.w.+.+ E { 7.}  .0.:.9 U.P h V.M.J X ",
"  K M.V.k P U.Y.Y.E.E.E.W.E.E.E.E.W.W.E.W.E.E.W.E.W.E.W.E.E.E.W.E.W.E.W.W.E.W.E.E.E.W.E.E.W.v %.)._.p.9.6 : &. .u.u.6.2.z U.P h B.m.K X ",
"  J m.N.g P I.I.I.Y.E.E.E.W.E.W.W.E.E.W.E.W.W.E.W.E.W.E.W.E.W.E.W.E.W.E.E.W.E.W.W.E.E.W.W.E.= a.).F.7.8.` ` q E 5.5.;.^ v P.P h N.m.L X ",
"  L b.m.i P K.P.I.T.T.E.E.E.E.E.E.W.E.E.E.E.E.E.W.E.W.E.W.E.E.W.E.E.W.E.E.W.W.E.E.W.E.E.E.W.9 0.i. .q./ x ] e O.2.^ ~ R d J.F g m.b.D X ",
"  D x.b.i H K.P.I.U.T.E.E.E.E.E.W.E.E.E.E.E.E.W.E.E.E.W.E.W.W.E.W.W.E.W.W.E.E.W.W.E.E.E.W.W.9 w.i.i.t.#.+.$.e t.r.#.W : x J.H i b.x.Z X ",
"  Z k.x.i F G.K.P.I.I.T.E.E.E.E.W.E.E.E.E.E.W.W.E.E.E.E.W.W.W.W.W.W.W.W.W.W.W.W.W.W.E.E.W.W.z :.w.i.t.9.i.i.i.i.e.#.~ R % G.F i x.k.S X ",
"  B h.x.t V V.G.H.K.L.I.I.I.T.E.E.E.E.E.E.E.E.E.E.R.E.E.E.R.E.R.R.E.R.E.R.E.R.E.E.E.E.R.E.E.c E 3.w.e.u.i.i.i.y.6.#.~ R $ Z.V t x.h.B X ",
"  n g.k.t M N.V.Z.Z.H.K.L.L.U.T.T.T.T.T.I.T.T.U.T.T.T.T.Y.T.T.T.T.T.U.T.T.T.U.T.U.U.T.T.Y.T.T.5 +.4.3.6.5.5.5.3.;.~ W * x B.M t j.g.n X ",
"  n f.g.t M m.N.N.B.Z.Z.G.H.L.P.P.P.L.P.L.I.I.L.P.P.P.P.P.P.P.P.P.P.P.P.P.P.P.P.L.P.P.P.P.P.P.( : E $.:.>.>.;.^ W q # & N.m.M t g.f.j X ",
"  j d.f.t # G v.M.N.B.V.V.Z.G.K.J.J.J.J.J.J.H.J.J.J.J.J.J.J.K.J.J.J.J.J.J.J.J.J.J.J.K.H.J.J.J.J.J.d a 4 l q > s d v N.M.v.G # t f.d.j X ",
"  p A L i     d.h.h.l.l.z.z.n.n.n.n.n.n.n.n.n.n.n.n.n.n.n.v.n.n.n.n.n.v.n.n.n.n.n.n.n.n.n.n.n.n.m.n.n.n.n.n.z.z.z.k.h.h.K     t L A p X ",
"  y C S &                                                                                                                     r S C y X ",
"  y m m $ o T Y U U I U Y Y Y U Y Y Y Y U U Y Y Y Y Y Y Y Y Y Y Y E Y E Y Y Y Y U U I U Y Y Y U Y Y Y Y U U Y Y Y Y Y Y Y ` o $ m m y   ",
"1 i y y ; I <.<.<.<.<.<.<.<.<.<.<.<.<.<.<.<.<.<.<.<.<.<.<.<.<.<.&.<.<.<.<.<.:.<.<.<.<.<.<.<.<.<.<.<.<.<.<.<.<.<.:.<.<.<.<.<.I ; y y * 8 ",
"<.<     Y <.<.3.<.<.<.<.<.<.<.<.<.<.<.<.<.<.<.<.<.<.<.<.<.<.<.<.>.:.<.<.<.<.<.1.<.<.<.<.<.<.<.<.<.<.<.<.<.<.<.<.<.<.<.<.<.:.:.E     2 <."
};
