/* XPM */
static char *bagBanner_Bgwall[] = {
/* columns rows colors chars-per-pixel */
"68 28 177 2 ",
"   c #010101",
".  c #0B0605",
"X  c #180D0C",
"o  c #331B19",
"O  c #391E1C",
"+  c #3F3C1A",
"@  c #180632",
"#  c #2E1D25",
"$  c #1D2337",
"%  c #22242E",
"&  c #2F2531",
"*  c #212639",
"=  c #2D2939",
"-  c #262330",
";  c #3E2731",
":  c #2E303E",
">  c #39332E",
",  c #4E2A26",
"<  c #402B24",
"1  c #572E2B",
"2  c #582F2C",
"3  c #5A302C",
"4  c #483536",
"5  c #573838",
"6  c #733E39",
"7  c #444005",
"8  c #4F5329",
"9  c #474C30",
"0  c #5A433D",
"q  c #544437",
"w  c #505231",
"e  c #654E3A",
"r  c #61423A",
"t  c #6D573C",
"y  c #7F6F2A",
"u  c #727333",
"i  c #282E40",
"p  c #2D3446",
"a  c #2C324B",
"s  c #30374F",
"d  c #333B4C",
"f  c #353C54",
"g  c #3E2A45",
"h  c #453741",
"j  c #533C42",
"k  c #53384E",
"l  c #633E40",
"z  c #3B4352",
"x  c #3F4855",
"c  c #3B435C",
"v  c #4E4148",
"b  c #715343",
"n  c #735940",
"m  c #624953",
"M  c #7E555E",
"N  c #6B4D4E",
"B  c #72745F",
"V  c #424B64",
"C  c #424A6A",
"Z  c #4C5565",
"A  c #465169",
"S  c #4A556D",
"D  c #545D6A",
"F  c #475070",
"G  c #4D5870",
"H  c #4F5979",
"J  c #4B5575",
"K  c #525D75",
"L  c #58626E",
"P  c #566175",
"I  c #5E6671",
"U  c #59647A",
"Y  c #5C687E",
"T  c #566279",
"R  c #656B76",
"E  c #93694E",
"W  c #9B7B46",
"Q  c #9A6D51",
"!  c #9F7054",
"~  c #856F51",
"^  c #AD7A59",
"/  c #A97A55",
"(  c #B07F58",
")  c #8B5E63",
"_  c #AC7D70",
"`  c #7F802F",
"'  c #949737",
"]  c #9BA237",
"[  c #B8B83F",
"{  c #A5AB39",
"}  c #C3BA3B",
"|  c #C9D03E",
" . c #D5D531",
".. c #EBF33B",
"X. c #ECF32D",
"o. c #A38048",
"O. c #B48F4E",
"+. c #A99647",
"@. c #BB934F",
"#. c #A3815F",
"$. c #B88857",
"%. c #BC9C55",
"&. c #A7AD40",
"*. c #B0A642",
"=. c #A9AE57",
"-. c #898175",
";. c #A3A76F",
":. c #C19655",
">. c #C69C53",
",. c #CB9F55",
"<. c #C7B747",
"1. c #CDA555",
"2. c #D1AA54",
"3. c #D1A656",
"4. c #D4BB51",
"5. c #D3B352",
"6. c #C4B04F",
"7. c #CDC24C",
"8. c #D5C54C",
"9. c #DED24C",
"0. c #DADC46",
"q. c #D9C851",
"w. c #E1DB4A",
"e. c #E3DC46",
"r. c #DDE640",
"t. c #E2E248",
"y. c #E5E846",
"u. c #EAF144",
"i. c #E9EE5C",
"p. c #DDE164",
"a. c #EFF76F",
"s. c #566281",
"d. c #5E6A8B",
"f. c #657392",
"g. c #6B7994",
"h. c #6D7B9A",
"j. c #707E9E",
"k. c #74829A",
"l. c #79869B",
"z. c #7785A4",
"x. c #7886A3",
"c. c #7D8BA3",
"v. c #7E8CA9",
"b. c #818FA2",
"n. c #8391AE",
"m. c #8594B0",
"M. c #8B9AB3",
"N. c #909FB7",
"B. c #94A4BC",
"V. c #98A6BE",
"C. c #99A8BE",
"Z. c #AAAAAE",
"A. c #CBCF89",
"S. c #CED2A3",
"D. c #F5F9B5",
"F. c #9DACC2",
"G. c #A1AEC3",
"H. c #A2B1C7",
"J. c #A7B5C9",
"K. c #A9B5C9",
"L. c #ACB8CC",
"P. c #B2BDCF",
"I. c #B3BED1",
"U. c #B6C1D1",
"Y. c #B8C2D3",
"T. c #BFC8D7",
"R. c #C6CEDC",
"E. c #C8D0DE",
"W. c #D9D9DA",
"Q. c #E3D7D7",
"!. c #FAFDD8",
"~. c #EBE8C2",
"^. c #DDDDE0",
"/. c #F2EDEB",
"(. c #FFFFEA",
"). c #FCFEE3",
"_. c #FFFFFD",
/* pixels */
"6 o     1 6 6 ; 6 6 6 6 6 6 6 6 6 6 6 6 6 6 ; 6 6 6 6 6 6 6 ; ; ; 6 6 6 6 6 6 6 ; l 6 6 6 6 6 6 6 6 6 6 6 6 6 ; 6 6 6 6 6 6 6 #     o 6 ",
"o = a a & , 6 ; 6 6 6 6 6 6 6 6 6 6 6 6 6 6 ; 6 6 6 6 6 6 6 6 ; 6 6 6 6 6 6 6 6 < 6 6 6 6 6 6 6 6 6 6 6 6 6 6 ; 6 6 6 6 6 6 , # s a = O ",
"  a C C * X 3 # 1 1 1 1 1 1 1 1 1 1 1 2 1 1 # 2 1 1 1 1 1 1 # # # 1 1 1 1 1 1 1 # 2 2 2 3 2 2 2 1 2 1 1 1 1 1 # 1 1 1 1 2 2 X * C C a   ",
"  s F J i                                                                               .                                     i J C s . ",
"  f H s.p     Y g.g.k.l.l.l.c.b.b.b.b.b.b.b.b.b.b.b.c.b.b.b.b.b.b.c.b.c.b.b.b.b.b.b.b.b.b.b.b.b.b.b.b.b.b.b.l.l.k.k.h.g.d.    p s.H f . ",
"  c s.d.p % P c.n.n.B.B.B.V.H.H.H.H.H.H.H.H.H.G.H.H.H.H.H.H.H.H.J.H.H.H.H.H.H.H.H.H.H.H.H.H.H.H.H.H.G.H.H.G.V.B.B.B.9 > c.P % p d.s.c . ",
"  V d.f.p Z n.M.M.B.V.C.C.G.K.L.L.L.L.L.L.L.L.L.L.L.L.L.L.L.L.L.L.L.L.L.L.L.L.L.L.L.L.L.L.L.L.L.L.L.L.L.L.L.G.F.C.C.' 0.{ #.Z i f.d.c . ",
"  V f.h.p Z M.B.V.C.H.J.K.L.U.Y.Y.Y.I.Y.Y.Y.I.I.Y.Y.Y.Y.Y.Y.U.Y.Y.U.Y.Y.Y.Y.Y.Y.I.T.I.T.I.I.I.I.Y.Y.Y.U.Y.I.L.J.J.@ ` q.u.+.M p h.f.V . ",
"  S g.k.p L V.F.G.H.K.P.P.U.R.R.R.R.T.R.R.T.R.R.T.R.R.R.T.R.R.R.R.T.R.T.R.T.R.R.T.R.T.R.R.R.R.R.R.R.T.R.R.R.I.L.> Z.W.~ 6.o.v d j.h.C . ",
"  G j.x.p L F.J.L.L.P.Y.R.Y.R.R.E.E.R.R.R.R.E.E.E.R.R.E.R.R.R.E.R.E.E.E.E.E.R.R.E.E.E.R.E.E.R.R.R.R.R.R.k w =.A.&.B ^.S.7 v L d z.h.S . ",
"  K z.v.z L H.L.U.U.Y.R.R.R.R.R.R.E.R.E.R.R.E.E.R.E.E.R.R.R.R.E.E.R.E.E.R.E.R.E.R.E.R.R.E.R.R.E.R.R.R.m 9  .!._.(.p.y ] u J.I d n.z.K . ",
"  T v.n.z I J.L.P.U.Y.R.R.R.R.R.E.R.E.R.R.E.E.R.R.R.R.R.E.R.E.R.R.E.R.E.E.R.E.R.E.R.E.R.R.R.E.R.R.R.R.9 | X.!.Q./.a.4.5 ; J.I z n.b.K . ",
"  U n.M.x R L.U.U.U.R.R.R.E.R.E.R.E.R.E.R.E.R.E.E.R.E.R.E.E.R.E.E.R.R.E.R.R.R.E.R.E.E.R.E.R.R.R.r 7 4 +.} u -._ ~.i.e.@.* L.Y z M.n.U . ",
"  Y m.M.x R U.U.U.U.R.R.E.R.E.R.E.R.E.R.E.R.E.R.R.E.E.R.R.R.E.R.E.R.E.R.R.E.R.E.E.R.R.E.R.E.R.j ;.A.q.:.@ W } <.| u.w.>.b L.R x N.m.U . ",
"  Y m.B.x R P.U.U.R.R.R.R.E.R.E.R.E.R.E.R.E.R.E.E.R.R.E.R.E.E.R.R.E.R.E.E.R.E.R.R.E.R.R.E.E.N { (._.i.8.w 5 *.y.u.u.5.3.t U.R V N.m.Y   ",
"  U n.M.v R L.P.P.U.R.R.E.R.E.R.E.R.E.R.E.R.E.R.E.E.R.R.E.R.R.E.E.R.E.R.R.E.R.E.E.R.R.E.R.R.> p.).D.6.7.' ' t W 4.4.:.( e L.R z m.n.U . ",
"  T v.n.d R J.L.U.U.Y.R.R.R.R.E.R.E.R.R.R.R.R.R.R.E.R.R.E.E.R.R.R.E.R.E.E.R.R.E.E.R.R.R.R.R.e 9.u...0.( l *.u +.2./ ^ E v J.I z n.v.K . ",
"  K z.v.d I H.L.P.Y.Y.R.R.R.R.R.E.R.R.R.R.R.R.E.R.R.E.R.E.R.E.R.R.R.E.E.R.R.E.E.R.R.E.R.R.R.e q.u.u.r.$.%.+.u y.t.$.! ; m J.L d v.x.K . ",
"  G j.z.d L F.K.L.L.P.Y.R.R.R.R.E.R.R.R.R.R.E.E.R.E.R.R.E.R.R.R.E.E.E.E.E.E.E.E.E.E.R.R.E.E.b 1.9.u.r.q.u.u.u.u.w.$.^ E = F.L d x.j.G . ",
"  A g.z.p D B.F.G.H.L.P.L.U.Y.R.R.R.R.R.R.R.R.R.T.R.R.R.R.R.R.T.T.R.T.R.T.R.T.R.R.R.R.T.R.R.M W 3.q.9.y.u.u.u.e.5.$.^ E $ B.D p j.h.A . ",
"  V f.j.p Z M.B.B.C.H.J.K.L.U.Y.Y.Y.Y.Y.P.Y.Y.Y.Y.Y.Y.Y.Y.I.Y.Y.I.Y.Y.Y.I.Y.Y.Y.I.I.Y.Y.Y.Y.Y.q @.3.1.2.4.4.4.2.:.^ ! > m N.Z p h.f.V . ",
"  V d.f.p Z n.M.M.N.C.C.F.G.K.L.L.L.L.K.K.L.L.L.L.L.L.L.L.L.L.L.L.L.L.L.L.L.L.L.L.L.L.L.L.L.L.) 4 W O.1.,.1.:./ Q b - : M.m.Z p f.d.c . ",
"  c s.d.p % P c.n.M.B.B.B.V.G.H.H.H.H.H.H.H.H.H.H.H.H.H.H.H.J.G.H.H.H.H.H.H.H.H.H.H.H.H.H.H.H.H.J.k h 0 t b 0 h v m M.n.c.P % p d.s.c   ",
"  f H T p     d.g.g.k.k.l.l.c.b.b.b.b.b.b.b.b.b.b.b.b.b.b.b.b.b.c.b.b.b.b.b.b.b.b.b.b.b.b.b.b.b.c.c.c.b.b.c.l.k.l.l.g.g.Y     p s.H f . ",
"  a F J i                                                                                                                     i J F a . ",
"  a C C * X 3 # 1 1 1 2 1 1 1 1 1 1 1 1 1 1 # 1 1 1 1 1 1 1 # 2 # 1 1 1 1 1 1 2 # 1 1 1 1 1 1 1 1 1 1 1 1 1 1 # 1 1 1 1 2 3 X * C C a   ",
"o = a a & , 6 ; 6 6 6 6 6 6 6 6 6 6 6 6 6 6 ; 6 6 6 6 6 6 6 6 l 6 6 6 6 6 6 6 6 ; 6 6 6 6 6 6 6 6 6 6 6 6 6 6 ; 6 6 6 6 6 6 , % s a = O ",
"6 o     1 6 6 ; 6 6 6 6 6 6 6 6 6 6 6 6 6 6 ; 6 6 6 6 6 6 6 4 < ; 6 6 6 6 6 6 6 ; 6 6 6 6 6 6 6 6 6 6 6 6 6 6 ; 6 6 6 6 6 6 6 1     o 6 "
};
