/* XPM */
static char *persoBanner_BgSoil[] = {
/* columns rows colors chars-per-pixel */
"68 28 191 2 ",
"   c #C3A051",
".  c #574824",
"X  c black",
"o  c #93793D",
"O  c #B9954A",
"+  c #CDAB58",
"@  c #B18D45",
"#  c #584824",
"$  c #544523",
"%  c #3E3C3E",
"&  c #2B314B",
"*  c #2E344D",
"=  c #433D37",
"-  c #846C36",
";  c #37363D",
":  c #614F28",
">  c #2B314A",
",  c #424969",
"<  c #434C6C",
"1  c #212638",
"2  c #2A2211",
"3  c #997E3F",
"4  c #967B3E",
"5  c #8C7038",
"6  c #9B8142",
"7  c #2A3048",
"8  c #060502",
"9  c #30374F",
"0  c #475070",
"q  c #4B5575",
"w  c #282E40",
"e  c #010101",
"r  c #2F354D",
"t  c #131008",
"y  c #353C55",
"u  c #4F5979",
"i  c #556180",
"p  c #2E3648",
"a  c #5C687F",
"s  c #6B7992",
"d  c #6E7B93",
"f  c #748198",
"g  c #778499",
"h  c #78859A",
"j  c #79869C",
"k  c #7F8CA1",
"l  c #818FA3",
"z  c #818FA2",
"x  c #343B53",
"c  c #3A425B",
"v  c #566282",
"b  c #5E6B8B",
"n  c #2D3547",
"m  c #22262D",
"M  c #566175",
"N  c #7B8AA4",
"B  c #8595B1",
"V  c #8998B3",
"C  c #91A1BA",
"Z  c #94A4BC",
"A  c #0C0A07",
"S  c #9FAEC5",
"D  c #A3B1C7",
"F  c #A2B1C7",
"G  c #98A6BE",
"H  c #95A4BD",
"J  c #394159",
"K  c #404861",
"L  c #5E6A8A",
"P  c #667493",
"I  c #293142",
"U  c #4A5364",
"Y  c #8594B0",
"T  c #8A99B2",
"R  c #8C9AB3",
"E  c #4C342F",
"W  c #ACB8CC",
"Q  c #ADB8CC",
"!  c #A9B5C9",
"~  c #A0ADC3",
"^  c #9DABC1",
"/  c #9BAAC0",
"(  c #99A8BE",
")  c #909EB6",
"_  c #3E475F",
"`  c #444E67",
"'  c #647292",
"]  c #6D7B9A",
"[  c #2D3446",
"{  c #4F5766",
"}  c #8D9CB5",
"|  c #95A4BB",
" . c #634A45",
".. c #B8C2D3",
"X. c #B9C3D3",
"o. c #B5C0D1",
"O. c #ACB8CB",
"+. c #A8B4C8",
"@. c #A6B2C7",
"#. c #A3B1C5",
"$. c #9AA9BF",
"%. c #97A6BC",
"&. c #424C64",
"*. c #48536C",
"=. c #697897",
"-. c #72809E",
";. c #2F3647",
":. c #545D6A",
">. c #96A4BC",
",. c #9FADC2",
"<. c #A2AFC4",
"1. c #C2CBDA",
"2. c #C3CCDA",
"3. c #C0C9D8",
"4. c #B3BED0",
"5. c #B1BCCE",
"6. c #ABB7CB",
"7. c #A4B1C6",
"8. c #465169",
"9. c #4D5870",
"0. c #707E9E",
"q. c #7886A3",
"w. c #31394A",
"e. c #58626E",
"r. c #9DACC2",
"t. c #A8B5C9",
"y. c #C8D0DE",
"u. c #C6CEDC",
"i. c #BEC7D7",
"p. c #BFC8D7",
"a. c #BBC4D5",
"s. c #B2BDCF",
"d. c #AEB9CC",
"f. c #ACB7CB",
"g. c #4B566E",
"h. c #535E76",
"j. c #7785A4",
"k. c #7F8EA9",
"l. c #353D4D",
"z. c #5D6570",
"x. c #A4B2C7",
"c. c #AEBACD",
"v. c #C7CFDD",
"b. c #C3CBDA",
"n. c #B6C1D1",
"m. c #505B73",
"M. c #566279",
"N. c #7D8BA9",
"B. c #8593AE",
"V. c #394150",
"C. c #5F6772",
"Z. c #A7B5C9",
"A. c #D2A394",
"S. c #B8C3D3",
"D. c #AFBACE",
"F. c #545F76",
"G. c #120F07",
"H. c #5A657C",
"J. c #8290AD",
"K. c #8B9AB3",
"L. c #3D4553",
"P. c #636A75",
"I. c #AEBACE",
"U. c #B2BDD0",
"Y. c #C5CDDB",
"T. c #B4BFD1",
"R. c #586379",
"E. c #5D687D",
"W. c #8694B0",
"Q. c #909FB7",
"!. c #3F4855",
"~. c #676D77",
"^. c #B4BFD2",
"/. c #B5C1D2",
"(. c #E4B5A5",
"). c #C8D0DD",
"_. c #BDC6D6",
"`. c #B7C2D2",
"'. c #5A657A",
"]. c #553D39",
"[. c #B56A68",
"{. c #291A18",
"}. c #3A2B28",
"|. c #6E7D61",
" X c #C0AC98",
".X c #4C403D",
"XX c #DBCBBC",
"oX c #87947C",
"OX c #141108",
"+X c #425059",
"@X c #856A34",
/* pixels */
"  . X X o     O + +                                   O                       @ O O + +                                       o X X #   ",
"$ % & * = -   @ O O + +                                                           O                                         - = * & ; : ",
"X > , < 1 2 3 4 o 5 o o o o o o o o o o o o o o o o o o o o o o o o o o o o o o o o o o o o o o o o 6 6 6 6 6 o 5 o o o 4 3 2 1 < , 7 8 ",
"X 9 0 q w X e e e e e e e e e e e e e e e e e e e e e e e e e e e e e e e e e e e e e e e e e e e e e e e e e e e e e e e e X w q 0 r t ",
"X y u i p X X a s d f g h j k l z z z z z z z z z z z z z z z z z z z z z z z z z z z z z z z z z z z z l k j h g f d s a X X p i u x t ",
"X c v b n m M N B V C Z A A S D A F F F F F F F F F F F F F F F F F F F F F F F F F F F F F F F F F F D D S G H Z C V B N M m n b v J t ",
"X K L P I U Y T R A A A E E A A E A W W W W W W W W W W W W W W W W W W W W W W W W W W W W W W W W W W Q ! ~ ^ / ( ) R T Y U I P L _ t ",
"X ` ' ] [ { } | A E E E  . .E E  .E A ..................................................................X.o.O.+.@.#.$.%.| } { [ ] ' &.t ",
"X *.=.-.;.:.>.,.<.A  . . . . . . . . .A 1.1.1.1.1.1.1.1.1.1.1.1.1.1.1.1.1.1.1.1.1.1.1.1.1.1.1.1.1.1.1.1.2.3.o.4.5.6.7.<.,.>.:.;.-.=.8.t ",
"X 9.0.q.w.e.r.t.A  . . . . . . . . . .E A y.y.y.y.y.y.y.y.y.y.y.y.y.y.y.y.y.y.y.y.y.y.y.y.y.y.y.y.y.y.y.y.u.i.p.a.s.d.f.t.r.e.w.q.0.g.t ",
"X h.j.k.l.z.x.c.A  . . .E E  .E  . . .E E A v.v.v.v.v.v.v.v.v.v.v.v.v.v.v.v.v.v.v.v.v.v.v.v.v.v.v.v.v.v.v.v.v.y.b.X.n.4.c.x.z.l.k.j.m.t ",
"X M.N.B.V.C.Z.A E E  . .A.E  .A. . . . .A v.v.v.v.v.v.v.v.v.v.v.v.v.v.v.v.v.v.v.v.v.v.v.v.v.v.v.v.v.v.v.v.v.v.y.b.S.n.4.D.Z.C.V.B.N.F.G.",
"X H.J.K.L.P.I.U.A E  .A.A.A. .A.A. . . .A v.v.v.v.v.v.v.v.v.v.v.v.v.v.v.v.v.v.v.v.v.v.v.v.v.v.v.v.v.v.v.v.v.v.v.Y.p.X.T.U.I.P.L.K.J.R.t ",
"X E.W.Q.!.~.^./.A  . .A.A (.A.(.A A.E  . .A v.v.v.v.v.v.v.v.v.v.v.v.v.v.v.v.v.v.v.v.v.v.v.v.v.v.v.v.v.v.v.v.v.v.).v._.`./.^.~.!.Q.W.'.t ",
"X E.W.Q.!.~.^.A ]. .[.A.{.(.(.(.{.A.[.].A v.v.v.v.v.v.v.v.v.v.v.v.v.v.v.v.v.v.v.v.v.v.v.v.v.v.v.v.v.v.v.v.v.v.v.).v._.`./.^.~.!.Q.W.'.t ",
"X H.J.K.L.P.I.U.A ].].A.(.(.(.(.(.A.].].A v.v.v.v.v.v.v.v.v.v.v.v.v.v.v.v.v.v.v.v.v.v.v.v.v.v.v.v.v.v.v.v.v.v.v.Y.p.X.T.U.I.P.L.K.J.R.t ",
"X M.N.B.V.C.Z.D.4.A ].].A.(.(.(.A.].].A v.v.v.v.v.v.v.v.v.v.v.v.v.v.v.v.v.v.v.v.v.v.v.v.v.v.v.v.v.v.v.v.v.v.v.y.b.S.n.4.D.Z.C.V.B.N.F.t ",
"X h.j.k.l.z.x.c.4.n.A ].A A.A.A.A ].A v.v.v.v.v.v.v.v.v.v.v.v.v.v.v.v.v.v.v.v.v.v.v.v.v.v.v.v.v.v.v.v.v.v.v.v.y.b.X.n.4.c.x.z.l.k.j.m.t ",
"X 9.0.q.w.e.r.t.f.A }.|.}. X X X}.|.}.A y.y.y.y.y.y.y.y.y.y.y.y.y.y.y.y.y.y.y.y.y.y.y.y.y.y.y.y.y.y.y.y.y.u.i.p.a.s.d.f.t.r.e.w.q.0.g.t ",
"X *.=.-.;.:.>.,.<.A }.|..XXXXX X.X|.}.A 1.1.1.1.1.1.1.1.1.1.1.1.1.1.1.1.1.1.1.1.1.1.1.1.1.1.1.1.1.1.1.1.2.3.o.4.5.6.7.<.,.>.:.;.-.=.8.t ",
"X ` ' ] [ { } | A }.}.oX.XXXXXXX.XoX}.}.A ..............................................................X.o.O.+.@.#.$.%.| } { [ ] ' &.t ",
"X K L P I U Y T A .X}.|..X XXXXX.X|.}..XA W W W W W W W W W W W W W W W W W W W W W W W W W W W W W W W Q ! ~ ^ / ( ) R T Y U I P L _ OX",
"X c v b n m M A .X.XA }..XXX XXX.X}.A .X.XA F F F F F F F F F F F F F F F F F F F F F F F F F F F F F D D S G H Z C V B N M m n b v J G.",
"X y u i p X X A (.A.A }.}.+X+X+X}.}.A A.(.A z z z z z z z z z z z z z z z z z z z z z z z z z z z z z z l k j h g f d s a X X p i u x t ",
"X 9 0 q w X e e e e e e e e e e e e e e e e e e e e e e e e e e e e e e e e e e e e e e e e e e e e e e e e e e e e e e e e X w q 0 r t ",
"X > , < 1 2 3 4 5 @Xo o 5 o o 5 5 5 5 5 o 6 5 o o o o o o o o o o o o o o o o o 5 5 @X5 o o o 5 o o o o 5 5 o o o o o o 4 3 2 1 < , 7 8 ",
"$ % & * = -     O O @ O       O         O O                                                                                 - = * & ; : ",
"  . X X o                                                                     +                                               o X X #   "
};
