/* XPM */
static char *persoBanner_BgWall[] = {
/* columns rows colors chars-per-pixel */
"68 28 186 2 ",
"   c #3E2731",
".  c #331B19",
"X  c black",
"o  c #572E2B",
"O  c #733E39",
"+  c #1C1116",
"@  c #321A18",
"#  c #2F2A3A",
"$  c #2B314B",
"%  c #2E344D",
"&  c #2F2531",
"*  c #4E2A26",
"=  c #242538",
"-  c #391E1C",
";  c #2B314A",
":  c #414869",
">  c #434C6C",
",  c #212638",
"<  c #180D0C",
"1  c #5A302C",
"2  c #582F2C",
"3  c #2E1D25",
"4  c #2A3048",
"5  c #040202",
"6  c #30374F",
"7  c #475070",
"8  c #4B5575",
"9  c #282E40",
"0  c #010101",
"q  c #2F354D",
"w  c #0B0605",
"e  c #353C55",
"r  c #4F5979",
"t  c #556180",
"y  c #2E3647",
"u  c #5C687F",
"i  c #6B7992",
"p  c #6E7B93",
"a  c #748198",
"s  c #778499",
"d  c #78859A",
"f  c #79869C",
"g  c #7F8CA1",
"h  c #818FA3",
"j  c #818FA2",
"k  c #343B53",
"l  c #3A425B",
"z  c #566282",
"x  c #5E6B8B",
"c  c #2D3547",
"v  c #22262D",
"b  c #566175",
"n  c #7B8AA4",
"m  c #8595B1",
"M  c #8998B3",
"N  c #91A1BA",
"B  c #94A4BC",
"V  c #0C0A07",
"C  c #9FAEC5",
"Z  c #A3B1C7",
"A  c #A2B1C7",
"S  c #98A6BE",
"D  c #95A4BD",
"F  c #394159",
"G  c #060304",
"H  c #404861",
"J  c #5E6A8A",
"K  c #667493",
"L  c #293142",
"P  c #4A5364",
"I  c #8594B0",
"U  c #8A99B2",
"Y  c #8C9AB3",
"T  c #4C342F",
"R  c #ACB8CC",
"E  c #ADB8CC",
"W  c #A9B5C9",
"Q  c #A0ADC3",
"!  c #9DABC1",
"~  c #9BAAC0",
"^  c #99A8BE",
"/  c #909EB6",
"(  c #3E475F",
")  c #444E67",
"_  c #647292",
"`  c #6D7B9A",
"'  c #2D3446",
"]  c #4F5766",
"[  c #8D9CB5",
"{  c #95A4BB",
"}  c #634A45",
"|  c #B8C2D3",
" . c #B9C3D3",
".. c #B5C0D1",
"X. c #ACB8CB",
"o. c #A8B4C8",
"O. c #A6B2C7",
"+. c #A3B1C5",
"@. c #9AA9BF",
"#. c #97A6BC",
"$. c #424C64",
"%. c #48536C",
"&. c #697897",
"*. c #72809E",
"=. c #2F3647",
"-. c #545D6A",
";. c #96A4BC",
":. c #9FADC2",
">. c #A2AFC4",
",. c #C2CBDA",
"<. c #C3CCDA",
"1. c #C0C9D8",
"2. c #B3BED0",
"3. c #B1BCCE",
"4. c #ABB7CB",
"5. c #A4B1C6",
"6. c #465169",
"7. c #4D5870",
"8. c #707E9E",
"9. c #7886A3",
"0. c #31394A",
"q. c #58626E",
"w. c #9DACC2",
"e. c #A8B5C9",
"r. c #C8D0DE",
"t. c #C6CEDC",
"y. c #BEC7D7",
"u. c #BFC8D7",
"i. c #BBC4D5",
"p. c #B2BDCF",
"a. c #AEB9CC",
"s. c #ACB7CB",
"d. c #4B566E",
"f. c #535E76",
"g. c #7785A4",
"h. c #7F8EA9",
"j. c #353D4D",
"k. c #5D6570",
"l. c #A4B2C7",
"z. c #AEBACD",
"x. c #C7CFDD",
"c. c #C3CBDA",
"v. c #B6C1D1",
"b. c #505B73",
"n. c #566279",
"m. c #7D8BA9",
"M. c #8593AE",
"N. c #394150",
"B. c #5F6772",
"V. c #A7B5C9",
"C. c #D2A394",
"Z. c #B8C3D3",
"A. c #AFBACE",
"S. c #545F76",
"D. c #5A657C",
"F. c #8290AD",
"G. c #8B9AB3",
"H. c #3D4553",
"J. c #636A75",
"K. c #AEBACE",
"L. c #B2BDD0",
"P. c #C5CDDB",
"I. c #B4BFD1",
"U. c #586379",
"Y. c #5D687D",
"T. c #8694B0",
"R. c #909FB7",
"E. c #3F4855",
"W. c #676D77",
"Q. c #B4BFD2",
"!. c #B5C1D2",
"~. c #E4B5A5",
"^. c #C8D0DD",
"/. c #BDC6D6",
"(. c #B7C2D2",
"). c #5A657A",
"_. c #553D39",
"`. c #B56A68",
"'. c #291A18",
"]. c #3A2B28",
"[. c #6E7D61",
"{. c #C0AC98",
"}. c #4C403D",
"|. c #DBCBBC",
" X c #87947C",
".X c #425059",
/* pixels */
"  . X X o O O O   O O O O O O O O O O O O O O   O O O O O   O O O O O O O   O O O O O O O O O O O O O O   O O O O O   O O O O o X X + O ",
"@ # $ % & * O O   O O O O O O O O O O O O O O   O O O O O O O O O O O O O   O O O O O O O O O O O O O O   O O O O O O O O O * & % $ = - ",
"X ; : > , < 1 2 3 o o o o o o o o o o o o o o 3 o o o o o 3 o o o o o o o 3 o o o o o o o o o o o o o o 3 o o o o o 3 o 2 1 < , > : 4 5 ",
"X 6 7 8 9 X 0 0 0 0 0 0 0 0 0 0 0 0 0 0 0 0 0 0 0 0 0 0 0 0 0 0 0 0 0 0 0 0 0 0 0 0 0 0 0 0 0 0 0 0 0 0 0 0 0 0 0 0 0 0 0 0 X 9 8 7 q w ",
"X e r t y X X u i p a s d f g h j j j j j j j j j j j j j j j j j j j j j j j j j j j j j j j j j j j j h g f d s a p i u X X y t r k w ",
"X l z x c v b n m M N B V V C Z V A A A A A A A A A A A A A A A A A A A A A A A A A A A A A A A A A A Z Z C S D B N M m n b v c x z F G ",
"X H J K L P I U Y V V V T T V V T V R R R R R R R R R R R R R R R R R R R R R R R R R R R R R R R R R R E W Q ! ~ ^ / Y U I P L K J ( G ",
"X ) _ ` ' ] [ { V T T T } } T T } T V | | | | | | | | | | | | | | | | | | | | | | | | | | | | | | | | |  ...X.o.O.+.@.#.{ [ ] ' ` _ $.w ",
"X %.&.*.=.-.;.:.>.V } } } } } } } } } V ,.,.,.,.,.,.,.,.,.,.,.,.,.,.,.,.,.,.,.,.,.,.,.,.,.,.,.,.,.,.,.,.<.1...2.3.4.5.>.:.;.-.=.*.&.6.w ",
"X 7.8.9.0.q.w.e.V } } } } } } } } } } T V r.r.r.r.r.r.r.r.r.r.r.r.r.r.r.r.r.r.r.r.r.r.r.r.r.r.r.r.r.r.r.r.t.y.u.i.p.a.s.e.w.q.0.9.8.d.w ",
"X f.g.h.j.k.l.z.V } } } T T } T } } } T T V x.x.x.x.x.x.x.x.x.x.x.x.x.x.x.x.x.x.x.x.x.x.x.x.x.x.x.x.x.x.x.x.x.r.c. .v.2.z.l.k.j.h.g.b.w ",
"X n.m.M.N.B.V.V T T } } C.T } C.} } } } V x.x.x.x.x.x.x.x.x.x.x.x.x.x.x.x.x.x.x.x.x.x.x.x.x.x.x.x.x.x.x.x.x.x.r.c.Z.v.2.A.V.B.N.M.m.S.w ",
"X D.F.G.H.J.K.L.V T } C.C.C.} C.C.} } } V x.x.x.x.x.x.x.x.x.x.x.x.x.x.x.x.x.x.x.x.x.x.x.x.x.x.x.x.x.x.x.x.x.x.x.P.u. .I.L.K.J.H.G.F.U.w ",
"X Y.T.R.E.W.Q.!.V } } C.V ~.C.~.V C.T } } V x.x.x.x.x.x.x.x.x.x.x.x.x.x.x.x.x.x.x.x.x.x.x.x.x.x.x.x.x.x.x.x.x.x.^.x./.(.!.Q.W.E.R.T.).G ",
"X Y.T.R.E.W.Q.V _.} `.C.'.~.~.~.'.C.`._.V x.x.x.x.x.x.x.x.x.x.x.x.x.x.x.x.x.x.x.x.x.x.x.x.x.x.x.x.x.x.x.x.x.x.x.^.x./.(.!.Q.W.E.R.T.).w ",
"X D.F.G.H.J.K.L.V _._.C.~.~.~.~.~.C._._.V x.x.x.x.x.x.x.x.x.x.x.x.x.x.x.x.x.x.x.x.x.x.x.x.x.x.x.x.x.x.x.x.x.x.x.P.u. .I.L.K.J.H.G.F.U.w ",
"X n.m.M.N.B.V.A.2.V _._.C.~.~.~.C._._.V x.x.x.x.x.x.x.x.x.x.x.x.x.x.x.x.x.x.x.x.x.x.x.x.x.x.x.x.x.x.x.x.x.x.x.r.c.Z.v.2.A.V.B.N.M.m.S.w ",
"X f.g.h.j.k.l.z.2.v.V _.V C.C.C.V _.V x.x.x.x.x.x.x.x.x.x.x.x.x.x.x.x.x.x.x.x.x.x.x.x.x.x.x.x.x.x.x.x.x.x.x.x.r.c. .v.2.z.l.k.j.h.g.b.w ",
"X 7.8.9.0.q.w.e.s.V ].[.].{.{.{.].[.].V r.r.r.r.r.r.r.r.r.r.r.r.r.r.r.r.r.r.r.r.r.r.r.r.r.r.r.r.r.r.r.r.r.t.y.u.i.p.a.s.e.w.q.0.9.8.d.w ",
"X %.&.*.=.-.;.:.>.V ].[.}.|.|.{.}.[.].V ,.,.,.,.,.,.,.,.,.,.,.,.,.,.,.,.,.,.,.,.,.,.,.,.,.,.,.,.,.,.,.,.<.1...2.3.4.5.>.:.;.-.=.*.&.6.w ",
"X ) _ ` ' ] [ { V ].]. X}.|.|.|.}. X].].V | | | | | | | | | | | | | | | | | | | | | | | | | | | | | | |  ...X.o.O.+.@.#.{ [ ] ' ` _ $.w ",
"X H J K L P I U V }.].[.}.{.|.|.}.[.].}.V R R R R R R R R R R R R R R R R R R R R R R R R R R R R R R R E W Q ! ~ ^ / Y U I P L K J ( G ",
"X l z x c v b V }.}.V ].}.|.{.|.}.].V }.}.V A A A A A A A A A A A A A A A A A A A A A A A A A A A A A Z Z C S D B N M m n b v c x z F G ",
"X e r t y X X V ~.C.V ].]..X.X.X].].V C.~.V j j j j j j j j j j j j j j j j j j j j j j j j j j j j j j h g f d s a p i u X X y t r k w ",
"X 6 7 8 9 X 0 0 0 0 0 0 0 0 0 0 0 0 0 0 0 0 0 0 0 0 0 0 0 0 0 0 0 0 0 0 0 0 0 0 0 0 0 0 0 0 0 0 0 0 0 0 0 0 0 0 0 0 0 0 0 0 X 9 8 7 q w ",
"X ; : > , < 1 2 3 o o o o o o o o o o o o o o 3 o o o o o 3 o o o o o o o 3 o o o o o o o o o o o o o o 3 o o o o o 3 o 2 1 < , > : 4 5 ",
"@ # $ % & * O O   O O O O O O O O O O O O O O   O O O O O O O O O O O O O   O O O O O O O O O O O O O O   O O O O O O O O O * & % $ = - ",
"  . X X o O O O   O O O O O O O O O O O O O O   O O O O O   O O O O O O O   O O O O O O O O O O O O O O   O O O O O   O O O O o X X + O "
};
