/* XPM */
static char *zombie_right_soil1734924497[] = {
/* columns rows colors chars-per-pixel */
"32 32 28 1 ",
"  c #C3A051",
". c #B9954A",
"X c #CDAB58",
"o c #B18D45",
"O c black",
"+ c #5E724A",
"@ c #5B3C2C",
"# c #512D23",
"$ c #677755",
"% c #70805F",
"& c #BEC49F",
"* c #8DAB5F",
"= c #453A35",
"- c #3C312C",
"; c #A2A97F",
": c #7A2D18",
"> c #778667",
", c #342A25",
"< c #6A7A5A",
"1 c #645C3F",
"2 c #5A5237",
"3 c #70694F",
"4 c #4A413C",
"5 c #695D58",
"6 c #856D37",
"7 c #5B4B26",
"8 c #7E6632",
"9 c #8C753C",
/* pixels */
"       .XX                 .    ",
"       o..XX                    ",
"         .                      ",
"                  XXXXX .       ",
"                      ...       ",
"                       oo       ",
"                                ",
"               OOOOO            ",
"        X   ..O+@###O      .    ",
"      XX    XO#@@##@+O     ..   ",
"XXXX  .     O##@+@#@++O     . XX",
"......      O#@++@@$++O  XX.o...",
"   .  .     O@+$$%@%$+OXX.. ooo ",
"            O+$%%%@%%$O..       ",
"          XXO+%OOO%@OOO.        ",
"         ....O%%&*%@*&O         ",
"        ...  O%%%%%@%$O         ",
"         .  OO+%%%%%@$O         ",
"           O#=-+;%;%;@O         ",
"           O##--+;:;:O          ",
"        X O>#----+::O    o..XX  ",
"  XXXX .  O=>----%OO       ..   ",
"   ...... O==,,,<-:=O           ",
"      oo  O==,,,,O>>O           ",
"          O==111211O  X.        ",
"        .oO>>1111211OX.         ",
"        ..oOOO211121O.          ",
"           O222333OO            ",
"       X   O++O44O              ",
"   XX..     OOO455O             ",
"X  ...    677767777686   XXXXXXX",
"....  .    6666666669     ......"
};
