/* XPM */
static char *zombie_up_soil1734924497[] = {
/* columns rows colors chars-per-pixel */
"32 32 23 1 ",
"  c #C3A051",
". c #B9954A",
"X c #CDAB58",
"o c #B18D45",
"O c black",
"+ c #5B3C2C",
"@ c #512D23",
"# c #5E724A",
"$ c #677755",
"% c #70805F",
"& c #778667",
"* c #342A25",
"= c #453A35",
"- c #3C312C",
"; c #6A7A5A",
": c #70694F",
"> c #645C3F",
", c #4A413C",
"< c #695D58",
"1 c #856D37",
"2 c #5B4A25",
"3 c #7E6532",
"4 c #8B743C",
/* pixels */
"       .XX                 .    ",
"       o..XX                    ",
"         .                      ",
"                  XXXXX .       ",
"                      ...       ",
"                       oo       ",
"                                ",
"           OOOOO                ",
"        X O+@@@@O          .    ",
"      XX O##+@+##O         ..   ",
"XXXX  . O###++####O         . XX",
"......  O###+$$###O      XX.o...",
"   .  . O##$+%%$##O    XX.. ooo ",
"        O#$%+%%%$#OXX  ..       ",
"        O$%+&&&%%$O.....        ",
"        O$+%&&&%%$O  .o         ",
"        O$OO***OOO              ",
"         O=*******O             ",
"         O=*******-O            ",
"         O==******--O           ",
"        X O=******-==O   o..XX  ",
"  XXXX . OO==***;*O==O     ..   ",
"   .....O====--%--O==O          ",
"      ooO&&OO-%%%-O==O          ",
"         OOO::::::O==OX.        ",
"        .oO>::::::O&&O.         ",
"        .O>>::>::O OO.          ",
"         O>>>OO>>>O             ",
"       X  O##O O,,O             ",
"   XX..    OO  O<<O             ",
"X  ...  11222212222131   XXXXXXX",
"....  .  111111111114     ......"
};
