/* XPM */
static char *zombie_left_soil1734924497[] = {
/* columns rows colors chars-per-pixel */
"32 32 28 1 ",
"  c #C3A051",
". c #B9954A",
"X c #CDAB58",
"o c #B18D45",
"O c black",
"+ c #5B3C2C",
"@ c #512D23",
"# c #5E724A",
"$ c #677755",
"% c #70805F",
"& c #BEC49F",
"* c #8DAB5F",
"= c #453A35",
"- c #A2A97F",
"; c #3C312C",
": c #7A2D18",
"> c #778667",
", c #342A25",
"< c #6A7A5A",
"1 c #645C3F",
"2 c #5A5237",
"3 c #70694F",
"4 c #4A413C",
"5 c #695D58",
"6 c #856D37",
"7 c #5B4B26",
"8 c #574622",
"9 c #8C753C",
/* pixels */
"       .XX                 .    ",
"       o..XX                    ",
"         .                      ",
"                  XXXXX .       ",
"                      ...       ",
"                       oo       ",
"                                ",
"             OOOOO              ",
"        X   O+@@++O        .    ",
"      XX   O++@@+##O       ..   ",
"XXXX  .   O+#+@+####O       . XX",
"......    O##++$####O    XX.o...",
"   .  .   O#$+%%$$##O  XX.. ooo ",
"          O$%+%%%%$#O  ..       ",
"          OOO%+OOO%#O...        ",
"         .O&*%+*&%%O .o         ",
"        ..O$%%+%%%%OO           ",
"         .O$%%%++%#==O          ",
"          O#-%-%-+;===O         ",
"           O#-:-:;;====O        ",
"        X   O#::;;;;O===Oo..XX  ",
"  XXXX .     O>;;;;%===O   ..   ",
"   ......    O:=,,<==OO         ",
"      oo     O==,,,>>O          ",
"             O=111111OX.        ",
"        .o  O11112111O.         ",
"        ..o.O3332O333O          ",
"             O111OO111O         ",
"       X      O44O O##O         ",
"   XX..      O554O  OO          ",
"X  ...      6777776787766XXXXXXX",
"....  .      66666669666  ......"
};
