/* XPM */
static char *_30be2f049ff4aaaae647927ea4a24bdDnYOaC0Dknc5A9Bj[] = {
/* columns rows colors chars-per-pixel */
"32 32 18 1 ",
"  c #B86F50",
". c black",
"X c #5B3C2C",
"o c #512D23",
"O c #5E724A",
"+ c #677755",
"@ c #70805F",
"# c #778667",
"$ c #342A25",
"% c #453A35",
"& c #3C312C",
"* c #6A7A5A",
"= c #70694F",
"- c #645C3F",
"; c #4A413C",
": c #695D58",
"> c #7D4B36",
", c #553325",
/* pixels */
"                                ",
"                                ",
"                                ",
"                                ",
"                                ",
"                                ",
"                                ",
"          .....                 ",
"         .Xoooo.                ",
"        .OOXoXOO.               ",
"       .OOOXXOOOO.              ",
"       .OOOX++OOO.              ",
"       .OO+X@@+OO.              ",
"       .O+@X@@@+O.              ",
"       .+@X###@@+.              ",
"       .+X@###@@+.              ",
"       .+..$$$...               ",
"        .%$$$$$$$.              ",
"        .%$$$$$$$&.             ",
"        .%%$$$$$$&&.            ",
"         .%$$$$$$&%%.           ",
"        ..%%$$$*$.%%.           ",
"       .%%%%&&@&&.%%.           ",
"       .##..&@@@&.%%.           ",
"        ...======.%%.           ",
"         .-======.##.           ",
"        .--==-==. ..            ",
"        .---..---.              ",
"         .OO. .;;.              ",
"          ..  .::.              ",
"       >>,,,,>,,,,>>>           ",
"        >>>>>>>>>>>>            "
};
