/* XPM */
static char *_8c98d73049341f5fd574c9831d12530MRXjOj9bMDepgavS[] = {
/* columns rows colors chars-per-pixel */
"32 32 23 1 ",
"  c #B86F50",
". c black",
"X c #5B3C2C",
"o c #512D23",
"O c #5E724A",
"+ c #677755",
"@ c #70805F",
"# c #BEC49F",
"$ c #8DAB5F",
"% c #453A35",
"& c #A2A97F",
"* c #3C312C",
"= c #7A2D18",
"- c #778667",
"; c #342A25",
": c #6A7A5A",
"> c #645C3F",
", c #5A5237",
"< c #70694F",
"1 c #4A413C",
"2 c #695D58",
"3 c #7E4C36",
"4 c #563425",
/* pixels */
"                                ",
"                                ",
"                                ",
"                                ",
"                                ",
"                                ",
"                                ",
"             .....              ",
"            .XooXX.             ",
"           .XXooXOO.            ",
"          .XOXoXOOOO.           ",
"          .OOXX+OOOO.           ",
"          .O+X@@++OO.           ",
"          .+@X@@@@+O.           ",
"          ...@X...@O.           ",
"          .#$@X$#@@.            ",
"          .+@@X@@@@..           ",
"          .+@@@XX@O%%.          ",
"          .O&@&@&X*%%%.         ",
"           .O&=&=**%%%%.        ",
"            .O==****.%%%.       ",
"             .-****@%%%.        ",
"             .=%;;:%%..         ",
"             .%%;;;--.          ",
"             .%>>>>>>.          ",
"            .>>>>,>>>.          ",
"            .<<<,.<<<.          ",
"             .>>>..>>>.         ",
"              .11. .OO.         ",
"             .221.  ..          ",
"            3444443444433       ",
"             33333333333        "
};
