/* XPM */
static char *zombie_right_ground1734924369[] = {
/* columns rows colors chars-per-pixel */
"32 32 23 1 ",
"  c #B86F50",
". c black",
"X c #5E724A",
"o c #5B3C2C",
"O c #512D23",
"+ c #677755",
"@ c #70805F",
"# c #BEC49F",
"$ c #8DAB5F",
"% c #453A35",
"& c #3C312C",
"* c #A2A97F",
"= c #7A2D18",
"- c #778667",
"; c #342A25",
": c #6A7A5A",
"> c #645C3F",
", c #5A5237",
"< c #70694F",
"1 c #4A413C",
"2 c #695D58",
"3 c #7E4C36",
"4 c #563425",
/* pixels */
"                                ",
"                                ",
"                                ",
"                                ",
"                                ",
"                                ",
"                                ",
"               .....            ",
"              .XoOOO.           ",
"             .OooOOoX.          ",
"            .OOoXoOoXX.         ",
"            .OoXXoo+XX.         ",
"            .oX++@o@+X.         ",
"            .X+@@@o@@+.         ",
"            .X@...@o...         ",
"             .@@#$@o$#.         ",
"             .@@@@@o@+.         ",
"            ..X@@@@@o+.         ",
"           .O%&X*@*@*o.         ",
"           .OO&&X*=*=.          ",
"          .-O&&&&X==.           ",
"          .%-&&&&@..            ",
"          .%%;;;:&=%.           ",
"          .%%;;;;.--.           ",
"          .%%>>>,>>.            ",
"          .-->>>>,>>.           ",
"           ...,>>>,>.           ",
"           .,,,<<<..            ",
"           .XX.11.              ",
"            ...122.             ",
"          344434444333          ",
"           3333333333           "
};
