/* XPM */
static char *_7f295b558374ac4fc84caac07a32488e1nDgHxCo5U49ZGh[] = {
/* columns rows colors chars-per-pixel */
"32 32 187 2 ",
"   c black",
".  c #0A0617",
"X  c #2F3600",
"o  c #090526",
"O  c #01012C",
"+  c #08052D",
"@  c #020D2D",
"#  c #0B0B2E",
"$  c #10002F",
"%  c #01142D",
"&  c #02192D",
"*  c #0B162E",
"=  c #1A1C2E",
"-  c #141B2E",
";  c #150030",
":  c #1B1631",
">  c #1C1E30",
",  c #131730",
"<  c #291C33",
"1  c #311E35",
"2  c #1E242E",
"3  c #14302D",
"4  c #22242F",
"5  c #252D2E",
"6  c #2F2B2F",
"7  c #363B2F",
"8  c #363C2A",
"9  c #242431",
"0  c #2D2631",
"q  c #322C32",
"w  c #3B2B35",
"e  c #3C2437",
"r  c #3C3333",
"t  c #613A00",
"y  c #4B003E",
"u  c #56392F",
"i  c #433436",
"p  c #4B3738",
"a  c #543C3B",
"s  c #5A3F3C",
"d  c #54343A",
"f  c #474C00",
"g  c #767B00",
"h  c #464D2B",
"j  c #4A542E",
"k  c #484B30",
"l  c #474831",
"z  c #5B423C",
"x  c #5F4E37",
"c  c #4D5030",
"v  c #555931",
"b  c #644A3E",
"n  c #65473E",
"m  c #695239",
"M  c #725C3B",
"N  c #5C6031",
"B  c #787D2C",
"V  c #7F673E",
"C  c #7A7E3B",
"Z  c #3D454E",
"A  c #6D4941",
"S  c #7B4E44",
"D  c #724B42",
"F  c #7B5144",
"G  c #635353",
"H  c #7B6040",
"J  c #846A3F",
"K  c #A46732",
"L  c #845445",
"P  c #8B5646",
"I  c #8E5947",
"U  c #8E5548",
"Y  c #915B47",
"T  c #945D48",
"R  c #995F4A",
"E  c #9B6049",
"W  c #946A4E",
"Q  c #93674F",
"!  c #8E7142",
"~  c #987647",
"^  c #996D51",
"/  c #AE6A4E",
"(  c #A66949",
")  c #B36C4F",
"_  c #A66A58",
"`  c #B86F50",
"'  c #A97957",
"]  c #A77058",
"[  c #AA7459",
"{  c #AC7A58",
"}  c #A77656",
"|  c #B07C59",
" . c #7D8334",
".. c #8F9437",
"X. c #939837",
"o. c #858835",
"O. c #9DA238",
"+. c #A1A32A",
"@. c #B0B42C",
"#. c #A7AC3A",
"$. c #AEB239",
"%. c #BFC726",
"&. c #BFC535",
"*. c #BEC43D",
"=. c #E1E81F",
"-. c #E9F11D",
";. c #EBF617",
":. c #C6CB3F",
">. c #C0C73D",
",. c #D1C930",
"<. c #DBDB28",
"1. c #E6EE28",
"2. c #EBF329",
"3. c #E6ED3E",
"4. c #E9F03D",
"5. c #A6824A",
"6. c #AD8A4A",
"7. c #AB854B",
"8. c #B28D4D",
"9. c #B6914D",
"0. c #AF8157",
"q. c #B48656",
"w. c #B78957",
"e. c #BB8C57",
"r. c #BC8958",
"t. c #BE9256",
"y. c #B8A349",
"u. c #C59C53",
"i. c #CA9E54",
"p. c #C29556",
"a. c #CDA354",
"s. c #C4AE52",
"d. c #CFA954",
"f. c #D1A655",
"g. c #D2AB54",
"h. c #C6B351",
"j. c #D4B751",
"k. c #D5BB51",
"l. c #C2B847",
"z. c #CEC14F",
"x. c #CBCD43",
"c. c #D7C24F",
"v. c #D8C34F",
"b. c #DACB4C",
"n. c #CDD340",
"m. c #D6DC40",
"M. c #DAD24C",
"N. c #DDDA49",
"B. c #D6D04C",
"V. c #C5CB57",
"C. c #DAC251",
"Z. c #DDC950",
"A. c #D3D950",
"S. c #E2DD4A",
"D. c #E1D645",
"F. c #DEE542",
"G. c #E6EB44",
"H. c #E8EE44",
"J. c #E4E148",
"K. c #E4E547",
"L. c #EAF243",
"P. c #F1F944",
"I. c #EBF15B",
"U. c #EAF253",
"Y. c #E5EC58",
"T. c #E6EC65",
"R. c #7E828D",
"E. c #86858D",
"W. c #BABABC",
"Q. c #C09F90",
"!. c #ECF287",
"~. c #F1F88A",
"^. c #E9EE9F",
"/. c #EDF1A6",
"(. c #F4F8B9",
"). c #BBBCC0",
"_. c #DDCDC6",
"`. c #DEDFDF",
"'. c #E8DFDA",
"]. c #F9FCC5",
"[. c #F5F8C7",
"{. c #F9FBDC",
"}. c #F7F9D8",
"|. c #EBE1E5",
" X c #FBFEE1",
".X c #FFFFFE",
"XX c #F8F5F8",
/* pixels */
"` ` ` ` ` ` ` ` ` ` ` ` ` ` ` ` ` ` ` ` ` ` ` ` ` ` ` ` ` ` ` ` ",
"` ` ` ` ` ` ` ` ` ` ` ` ` ` ` ` ` ` ` ` ` ` ) ) / ` ` ` ` ` ` ` ",
"` ` ` ` ` ` ` ` ` ` ` ` ` ` ` ` ` ` ` ` ` ) 9 + @ d R ` ` ` ` ` ",
"` ` ` ` ` ` ` ` ` ` ` ` ` ` ` ` ` ` ` ` ` ) + O.v 7 + U ` ` ` ` ",
"` ` ` ` ` ` ` ` ` ` ` ` ` ` ` ` ` ` ` ` ` ` + :.L.K.X.c U ` ` ` ",
"` ` ` ` ` ` ` ` ` ` ` ` ` ` ` ` ` ` ` ` I i O :.Z.S.P.n.r U ` ` ",
"` ` ` ` ` ` ` ` ` ` ` ` ` ` ` ` ` ` ` ) 9     +.g.C.H.C.5.O Y ` ",
"` ` ` ` ` ` ` ` ` ` ` ` ` ` ` / ) ) ) n   W.`.E.t x.C.a.u.x 1 ` ",
"` ` ` ` ` ` ` ` ` ` ` ` ` E s @ + o o O   W..X.XR.. 6.M q p A ` ",
"` ` ` ` ` ` ` ` ` ` ` / a - O c &.V.V.&.f   )..X}.g O @ D / ` ` ",
"` ` ` ` ` ` ` ` ` ` ` a - O $.4.]..X.X].!.@.u Z A.L.7 * ) ` ` ` ",
"` ` ` ` ` ` ` ` ` ` E > O #.L.I..X.X.X.X{.2.b.u h ..5 > ) ` ` ` ",
"` ` ` ` ` ` ` ` ` ` s 4 o.m.L.I..X.X'.XX{.-.S.~ O O 9 Y ` ` ` ` ",
"` ` ` ` ` ` ) ) Y i O j L.L.3.Y..X_.K |. X-.G.j.8.m e ` ` ` ` ` ",
"` ` ` ` ` Y , # O O d l.S. .2 3 G ( Q.}.(.2.L.v.f.V O L ` ` ` ` ",
"` ` ` ` T + X f %.y.r.p.m O M 6.8 W _ ,.2.L.L.v.f.J O L ` ` ` ` ",
"` ` ` T + C ^./.~.D.j.i.4 = 9.g.G.G.s.h.H.L.G.j.a.u.q S ` ` ` ` ",
"` ` R + B T..X.X{.;.J.a.+ O r 9.M.L.L.L.L.L.N.i.f.a.q S ` ` ` ` ",
"` ` d 7 =.}..X.X{.<.N.G.O.N O O ; #.S.G.L.L.g.a.u.q.9 F ` ` ` ` ",
"` / @ l 1.}..X[.~.y.{ S.m.k  .y.w $ u.j.c.k.a.t.[ ' 0 F ` ` ` ` ",
"` ) + 6.J.U.I.4.2.z.] ' 4 5 L.S.! = i.e.[ [ { { { ^ 2 F ` ` ` ` ",
"` ) + 7.C.L.4.L.L.L.z.] Q b ....& k N.k.e.{ { | ^ 0 9 / ` ` ` ` ",
"` ) + 7.Z.L.L.L.L.L.z.] [ ] _ y O *.L.H.g.w.{ W - % p ` ` ` ` ` ",
"` / O 6.g.J.L.L.L.G.[ 0.B.M.M.x.>.F.L.H.g.w.{ ^ F * p ` ` ` ` ` ",
"` ) 1 ! a.d.J.L.L.H.s.N.L.L.L.L.L.L.L.H.g.w.{ { | b @ L ` ` ` ` ",
"` ` F 4 u.a.d.J.H.L.L.L.L.L.L.L.L.L.L.M.a.w.{ { { b @ L ` ` ` ` ",
"` ` T # J g.a.a.a.b.S.G.L.L.L.L.L.K.b.a.u.{ { | W % 9 R ` ` ` ` ",
"` ` ) q i 9.g.a.a.a.i.j.v.c.c.c.v.g.a.a.q.{ | ' z % i ) ` ` ` ` ",
"` ) P L : 6 8.f.f.a.a.a.a.a.a.a.a.a.u.q.{ { W z @ = S P ) ` ` ` ",
"` ) L L L > < H q.u.a.a.a.g.f.f.i.q.} ' ^ n % % = p L L ) ` ` ` ",
"` ` Y L L L q + < 4 b W ~ 6.5.Q W s 4 0 4 : w r F L L Y ) ` ` ` ",
"` ` ) I L L I A s a % O O O O O O & s z s F I P L L I ) ` ` ` ` "
};
