/* XPM */
static char *bag_soil1734924744[] = {
/* columns rows colors chars-per-pixel */
"32 32 194 2 ",
"   c black",
".  c #0A0617",
"X  c #2F3600",
"o  c #01012C",
"O  c #09062D",
"+  c #020C2D",
"@  c #0A092D",
"#  c #090826",
"$  c #10002F",
"%  c #01142D",
"&  c #0B132F",
"*  c #021A2D",
"=  c #0A182D",
"-  c #1A1D2E",
";  c #141A2E",
":  c #150030",
">  c #141A30",
",  c #1D1D31",
"<  c #261D32",
"1  c #1E242E",
"2  c #14302D",
"3  c #1E2430",
"4  c #22242F",
"5  c #252D2E",
"6  c #2F2B2F",
"7  c #363B2F",
"8  c #363C2A",
"9  c #232531",
"0  c #2D2631",
"q  c #282931",
"w  c #322C32",
"e  c #3C2833",
"r  c #283134",
"t  c #3E3934",
"y  c #373635",
"u  c #613A00",
"i  c #4B003E",
"p  c #56392F",
"a  c #403735",
"s  c #573939",
"d  c #474C00",
"f  c #767B00",
"g  c #464D2B",
"h  c #4A542E",
"j  c #484A30",
"k  c #494338",
"l  c #494336",
"z  c #564A3C",
"x  c #5D473A",
"c  c #4E5230",
"v  c #5B543D",
"b  c #555931",
"n  c #644A3E",
"m  c #61473D",
"M  c #62543B",
"N  c #6B503A",
"B  c #725C3B",
"V  c #5C6031",
"C  c #787D2C",
"Z  c #7A663F",
"A  c #7A7E3B",
"S  c #3D454E",
"D  c #635A40",
"F  c #635353",
"G  c #785644",
"H  c #6F6040",
"J  c #756241",
"K  c #836A3F",
"L  c #A46732",
"P  c #826E43",
"I  c #946A4E",
"U  c #966A4F",
"Y  c #857244",
"T  c #8C7545",
"R  c #8E7949",
"E  c #917642",
"W  c #927A47",
"Q  c #957C49",
"!  c #987F48",
"~  c #9C7948",
"^  c #996D51",
"/  c #A16A45",
"(  c #A66A58",
")  c #A97957",
"_  c #A77058",
"`  c #AA7459",
"'  c #AC7A58",
"]  c #A77656",
"[  c #B07C59",
"{  c #7D8334",
"}  c #8F9437",
"|  c #939837",
" . c #858935",
".. c #9DA238",
"X. c #A1A32A",
"o. c #B0B42C",
"O. c #A7AC3A",
"+. c #AEB239",
"@. c #BFC726",
"#. c #BFC535",
"$. c #BEC43D",
"%. c #E1E81F",
"&. c #E9F11C",
"*. c #EBF617",
"=. c #C6CB3F",
"-. c #C0C73D",
";. c #D1C930",
":. c #DBDB28",
">. c #E6EE28",
",. c #EBF329",
"<. c #E5ED3E",
"1. c #E9F03D",
"2. c #9B8148",
"3. c #96804B",
"4. c #AB8A46",
"5. c #A3844A",
"6. c #A3884B",
"7. c #AD8A4A",
"8. c #AB854B",
"9. c #B18D45",
"0. c #B28D4D",
"q. c #B6924C",
"w. c #B9954A",
"e. c #BA994F",
"r. c #AF8157",
"t. c #B48656",
"y. c #B78957",
"u. c #BB8C57",
"i. c #BC8958",
"p. c #BF9C50",
"a. c #BE9256",
"s. c #B8A349",
"d. c #C39D52",
"f. c #CA9E54",
"g. c #C29556",
"h. c #C3A051",
"j. c #CDA354",
"k. c #C3AE52",
"l. c #CEA955",
"z. c #CDAB58",
"x. c #D1A655",
"c. c #D2AB54",
"v. c #C6B351",
"b. c #D3B751",
"n. c #D5BB51",
"m. c #C2B847",
"M. c #CEC14F",
"N. c #CBCD43",
"B. c #D7C24F",
"V. c #D8C34F",
"C. c #DACB4C",
"Z. c #CDD340",
"A. c #D6DC40",
"S. c #DAD24C",
"D. c #DDDA49",
"F. c #D6D04C",
"G. c #C5CB57",
"H. c #DAC251",
"J. c #DDC950",
"K. c #D3D950",
"L. c #E2DD4A",
"P. c #E1D645",
"I. c #DEE542",
"U. c #E6EB44",
"Y. c #E8EE44",
"T. c #E4E148",
"R. c #E4E547",
"E. c #EAF243",
"W. c #F1F944",
"Q. c #EBF15B",
"!. c #EAF253",
"~. c #E5EC58",
"^. c #E6EC65",
"/. c #7E828D",
"(. c #86858D",
"). c #BABABC",
"_. c #C09F90",
"`. c #ECF287",
"'. c #F1F88A",
"]. c #E9EE9F",
"[. c #EDF1A6",
"{. c #F4F8B9",
"}. c #BBBCC0",
"|. c #DDCDC6",
" X c #DEDFDF",
".X c #E8DFDA",
"XX c #F9FCC5",
"oX c #F5F8C7",
"OX c #F9FBDC",
"+X c #F7F9D8",
"@X c #EBE1E5",
"#X c #FBFEE1",
"$X c #FFFFFE",
"%X c #F8F5F8",
/* pixels */
"h.h.h.h.h.h.h.w.z.z.h.h.h.h.h.h.h.h.h.h.h.h.h.p.h.h.h.q.h.h.h.h.",
"h.h.h.h.h.h.h.9.w.w.z.z.h.h.h.h.h.h.h.h.h.h.p.e.p.h.h.h.h.h.h.h.",
"h.h.h.h.h.h.h.h.h.w.h.h.h.h.h.h.h.h.h.h.h.p.q O + z 6.d.h.h.h.h.",
"h.h.h.h.h.h.h.h.h.h.h.h.h.h.h.h.h.h.z.z.z.h.O ..b 7 O Q h.h.h.h.",
"h.h.h.h.h.h.h.h.h.h.h.h.h.h.h.h.h.h.h.h.h.h.O =.E.U.| c Q d.h.h.",
"h.h.h.h.h.h.h.h.h.h.h.h.h.h.h.h.h.h.h.h.Q k o =.J.T.W.Z.t Q h.h.",
"h.h.h.h.h.h.h.h.h.h.h.h.h.h.h.h.h.d.h.p.q     X.x.H.Y.H.5.# 2.h.",
"h.h.h.h.h.h.h.h.h.h.h.h.h.h.d.p.p.e.p.H   ). X(.u N.n.j.d.n w h.",
"h.h.h.h.h.h.h.h.z.h.h.h.w.2.M + # # # o   ).$X$X/.. 8.B 6 a J h.",
"h.h.h.h.h.h.z.z.h.h.h.e.v > o g #.G.G.-.d   ).$X+Xf o & Z q.h.h.",
"z.z.z.z.h.h.w.h.h.h.h.z - o +.1.{.$X$XXX`.o.p S K.U.7 & w.h.z.z.",
"w.w.w.w.w.w.h.h.h.h.6.1 o O.1.Q.$X$X$X$XOX,.V.p g } 5 1 4.w.w.w.",
"h.h.h.w.h.h.w.d.h.h.v 9  .A.1.Q.$X$X.X%XOX&.L.~ o o 4 2.9.9.9.h.",
"h.h.h.h.h.h.p.d.Q l o h E.Y.U.~.$X|.L @X#X>.Y.n.0.M a h.h.h.h.h.",
"h.h.h.h.h.2.; + o o s m.L.{ 1 2 F U _.+X{.>.E.B.x.K o T h.h.h.h.",
"h.h.h.h.2.@ X d @.s.i.g.N o B 7.8 I ( ;.,.E.E.B.x.K o Y h.h.h.h.",
"h.h.h.2.O A ].[.'.P.b.d.4 - q.c.<.U.v.v.Y.Y.Y.b.j.f.w Y h.h.h.h.",
"h.h.6.O C ^.$X$XOX*.T.f.O o y q.C.1.1.E.E.E.D.f.j.j.w P h.h.h.h.",
"h.h.z 7 %.+X$X$XOX:.L.U.| V o o $ O.L.Y.1.E.c.j.d.t.< Y h.h.h.h.",
"d.p.+ j &.+X$XoX'.h.[ L.A.c { s.a $ f.b.B.B.j.a.) ) 0 Y h.h.h.h.",
"h.e.O 4.R.!.Q.1.,.M._ ' 4 5 Y.L.E - f.g.` ` ' ' ' ^ 1 Z z.z.h.h.",
"h.e.O 8.H.E.E.U.E.E.M.] I m } } % p D.n.u.) ' [ ^ 0 r 4.w.h.h.h.",
"h.e.O 8.H.E.Y.E.Y.Y.n._ ` ] ( i o $.E.U.c.y.' U ; * z h.h.h.h.h.",
"h.p.o 7.b.R.E.Y.E.U.] r.F.S.F.N.$.I.E.E.c.y.' ^ G = k h.h.h.h.h.",
"h.p.w E x.x.T.E.E.Y.k.D.E.E.E.E.E.E.E.Y.c.y.' ' ' D + T h.h.h.h.",
"h.h.Y 9 f.f.l.T.Y.E.E.E.E.E.Y.E.Y.E.E.S.l.y.) ' ` D + Y h.h.h.h.",
"h.h.2.& K x.j.j.j.C.L.U.E.E.E.E.E.R.J.j.f.` ' [ U + 9 5.h.h.h.h.",
"h.h.p.y a e.c.j.j.j.f.n.V.B.V.V.H.c.f.l.t.) ' ` s & k p.h.h.h.h.",
"h.d.Q Y , 6 0.x.j.l.j.j.f.j.f.j.j.l.f.t.` ' U x + 1 Y Q s.h.h.h.",
"h.s.T 3.W 1 < J t.g.j.j.x.c.x.j.f.y.] ] ^ x % % ; k T T d.h.h.h.",
"z.d.2.K K P y @ < 9 m I ~ 0.5.I I x < 0 1 , t a P Q 2.6.z.z.z.z.",
"w.w.w.E T T T J v v * o o o o o o * v v D Y 3.Q T T K q.w.w.w.e."
};
