/* XPM */
static char *down_2[] = {
/* columns rows colors chars-per-pixel */
"32 32 28 1 ",
"  c #C3A051",
". c #B9954A",
"X c #CDAB58",
"o c #B18D45",
"O c black",
"+ c #5B3C2C",
"@ c #512D23",
"# c #5E724A",
"$ c #677755",
"% c #70805F",
"& c #BEC49F",
"* c #8DAB5F",
"= c #453A35",
"- c #A2A97F",
"; c #3C312C",
": c #7A2D18",
"> c #778667",
", c #342A25",
"< c #6A7A5A",
"1 c #645C3F",
"2 c #5A5237",
"3 c #70694F",
"4 c #4A413C",
"5 c #695D58",
"6 c #856D37",
"7 c #5B4A25",
"8 c #564522",
"9 c #8B743C",
/* pixels */
"       .XX                 .    ",
"       o..XX                    ",
"         .                      ",
"                  XXXXX .       ",
"                      ...       ",
"               OOOOO   oo       ",
"              O+@@@@O           ",
"             O+#+@@+#O          ",
"        X   O@+#+@+###O    .    ",
"      XX    O@+#++$###O    ..   ",
"XXXX  .     O+#$+%%$##O     . XX",
"......      O#$%+%%%$#O  XX.o...",
"   .  .     O$OO%+%OO$OXX.. ooo ",
"            O$&*%+%*&$O..       ",
"          XXO%%%%%+%%%O.        ",
"         ...O#%%%%%+%#O         ",
"        ...O@=#-%-%-+O          ",
"         .O@@=;#-:-:;O          ",
"         O>@=;;;#::;OO          ",
"         O=>O;;;;%;===O         ",
"        XO=OO,,,<<==>>O  o..XX  ",
"  XXXX .O==OO,,,<,OOOO     ..   ",
"   .....O==OO,,,,,O             ",
"      oO==O O111111O            ",
"       O>>O O1112111O X.        ",
"        OO  .O1112111O.         ",
"        ..o. O111O213O          ",
"            O333OO133O          ",
"       X    O44O O%%O           ",
"   XX..     O55O :OO            ",
"X  ...   66677776777866  XXXXXXX",
"....  .   666666666696    ......"
};
