/* XPM */
static char *up_1[] = {
/* columns rows colors chars-per-pixel */
"32 32 24 1 ",
"  c #C3A051",
". c #B9954A",
"X c #CDAB58",
"o c #B18D45",
"O c black",
"+ c #5B3C2C",
"@ c #512D23",
"# c #5E724A",
"$ c #677755",
"% c #70805F",
"& c #778667",
"* c #342A25",
"= c #453A35",
"- c #3C312C",
"; c #6A7A5A",
": c #70694F",
"> c #645C3F",
", c #4A413C",
"< c #7A2D18",
"1 c #695D58",
"2 c #856D37",
"3 c #5B4A25",
"4 c #7E6532",
"5 c #8B743C",
/* pixels */
"       .XX                 .    ",
"       o..XX                    ",
"         .                      ",
"                  XXXXX .       ",
"                      ...       ",
"            OOOOO      oo       ",
"           O+@@@@O              ",
"          O##+@+##O             ",
"        XO###++####O       .    ",
"      XX O###+$$###O       ..   ",
"XXXX  .  O##$+%%$##O        . XX",
"......   O#$%+%%%$#O     XX.o...",
"   .  .  O$%+&&&%%$O   XX.. ooo ",
"         O$+%&&&%%$OX  ..       ",
"         O$OO***OOO.....        ",
"         .O=*******O .o         ",
"        ..O=*******-O           ",
"         .O==******--O          ",
"          OO=******-==O         ",
"         O====***;*O==O         ",
"        XO&&==---%-OO=O  o..XX  ",
"  XXXX .  OOOO--%--OO==O   ..   ",
"   ......    O-%%%-OO==O        ",
"      oo    O::::::O O==O       ",
"           O>::::::O O&&O       ",
"        .oO>>::>::O. XOO        ",
"        ..O>>>O>>>O ..          ",
"          O>>>OO>>>O            ",
"       X   O##O O,,O            ",
"   XX..     OO< O11O            ",
"X  ...   22333323333422  XXXXXXX",
"....  .   222222222252    ......"
};
